<svg xmlns="http://www.w3.org/2000/svg" xmlns:xlink="http://www.w3.org/1999/xlink" width="550" height="400" preserveAspectRatio="xMidYMid meet" version="1.0" viewBox="0 0 412.5 300" zoomAndPan="magnify"><defs><clipPath id="86a6cb13b6"><path d="M 0 0.179688 L 412 0.179688 L 412 299.816406 L 0 299.816406 Z M 0 0.179688" clip-rule="nonzero"/></clipPath><clipPath id="2334e7b33c"><path d="M 195 8.8125 L 337 8.8125 L 337 51 L 195 51 Z M 195 8.8125" clip-rule="nonzero"/></clipPath><clipPath id="ad79a3fb00"><path d="M 151 13 L 338.644531 13 L 338.644531 237 L 151 237 Z M 151 13" clip-rule="nonzero"/></clipPath><clipPath id="8b958b32b9"><path d="M 73.894531 33 L 214 33 L 214 226 L 73.894531 226 Z M 73.894531 33" clip-rule="nonzero"/></clipPath><clipPath id="39d993a09f"><path d="M 108 77 L 280 77 L 280 291.5625 L 108 291.5625 Z M 108 77" clip-rule="nonzero"/></clipPath></defs><g clip-path="url(#86a6cb13b6)"><path fill="#fff" fill-opacity="1" fill-rule="nonzero" d="M 0 0.179688 L 412.5 0.179688 L 412.5 307.679688 L 0 307.679688 Z M 0 0.179688"/><path fill="#fff" fill-opacity="1" fill-rule="nonzero" d="M 0 0.179688 L 412.5 0.179688 L 412.5 300.179688 L 0 300.179688 Z M 0 0.179688"/><path fill="#fff" fill-opacity="1" fill-rule="nonzero" d="M 0 0.179688 L 412.5 0.179688 L 412.5 300.179688 L 0 300.179688 Z M 0 0.179688"/></g><g clip-path="url(#2334e7b33c)"><path fill="#d3d2d2" fill-opacity="1" fill-rule="nonzero" d="M 335.5 50.699219 L 204.617188 13.375 L 198.824219 33.6875 L 195.4375 33.6875 L 202.53125 8.816406 L 336.546875 47.027344 L 335.5 50.699219"/></g><g clip-path="url(#ad79a3fb00)"><path fill="#fff" fill-opacity="1" fill-rule="nonzero" d="M 285.960938 236.273438 L 151.945312 198.066406 L 204.617188 13.375 L 338.632812 51.589844 L 285.960938 236.273438"/></g><path fill="#42a3ab" fill-opacity="1" fill-rule="nonzero" d="M 258.984375 57.03125 L 212.46875 43.769531 L 215.832031 31.964844 L 262.351562 45.230469 L 258.984375 57.03125"/><path fill="#d3d2d2" fill-opacity="1" fill-rule="nonzero" d="M 257.125 61.378906 L 211.179688 48.28125 L 209.496094 54.179688 L 255.441406 67.285156 L 257.125 61.378906"/><path fill="#d3d2d2" fill-opacity="1" fill-rule="nonzero" d="M 253.585938 73.785156 L 207.644531 60.679688 L 205.960938 66.585938 L 251.902344 79.683594 L 253.585938 73.785156"/><path fill="#d3d2d2" fill-opacity="1" fill-rule="nonzero" d="M 250.683594 83.976562 L 204.738281 70.875 L 203.054688 76.78125 L 248.996094 89.878906 L 250.683594 83.976562"/><path fill="#d3d2d2" fill-opacity="1" fill-rule="nonzero" d="M 247.082031 96.597656 L 201.136719 83.5 L 199.453125 89.398438 L 245.398438 102.5 L 247.082031 96.597656"/><path fill="#d3d2d2" fill-opacity="1" fill-rule="nonzero" d="M 287.613281 169.925781 L 184.84375 140.625 L 186.527344 134.726562 L 289.296875 164.027344 L 287.613281 169.925781"/><path fill="#d3d2d2" fill-opacity="1" fill-rule="nonzero" d="M 283.457031 184.492188 L 180.6875 155.191406 L 182.371094 149.289062 L 285.140625 178.59375 L 283.457031 184.492188"/><path fill="#f3d28b" fill-opacity="1" fill-rule="nonzero" d="M 203.03125 190.195312 L 173.140625 181.667969 L 179.554688 159.179688 L 209.445312 167.703125 L 203.03125 190.195312"/><path fill="#f3d28b" fill-opacity="1" fill-rule="nonzero" d="M 239.46875 200.582031 L 209.574219 192.058594 L 215.988281 169.570312 L 245.882812 178.09375 L 239.46875 200.582031"/><path fill="#f3d28b" fill-opacity="1" fill-rule="nonzero" d="M 275.90625 210.972656 L 246.015625 202.449219 L 252.429688 179.957031 L 282.320312 188.480469 L 275.90625 210.972656"/><path fill="#d3d2d2" fill-opacity="1" fill-rule="nonzero" d="M 298.898438 130.351562 L 261.402344 119.660156 L 263.085938 113.757812 L 300.582031 124.453125 L 298.898438 130.351562"/><path fill="#d3d2d2" fill-opacity="1" fill-rule="nonzero" d="M 295.914062 140.808594 L 258.421875 130.117188 L 260.105469 124.214844 L 297.597656 134.90625 L 295.914062 140.808594"/><path fill="#d3d2d2" fill-opacity="1" fill-rule="nonzero" d="M 292.9375 151.265625 L 255.4375 140.574219 L 257.121094 134.675781 L 294.621094 145.367188 L 292.9375 151.265625"/><path fill="#65bed9" fill-opacity="1" fill-rule="nonzero" d="M 249.1875 138.796875 L 190.167969 121.960938 L 197.8125 95.144531 L 256.835938 111.976562 L 249.1875 138.796875"/><path fill="#65bed9" fill-opacity="1" fill-rule="nonzero" d="M 302.21875 118.703125 L 258.476562 106.230469 L 274.855469 48.796875 L 318.601562 61.269531 L 302.21875 118.703125"/><path fill="#29242c" fill-opacity="1" fill-rule="nonzero" d="M 302.148438 118.683594 L 304.425781 110.703125 C 302.605469 108.101562 291.304688 100.804688 291.304688 100.804688 L 276.457031 96.574219 C 276.457031 96.574219 264.777344 96.375 260.933594 97.621094 L 258.476562 106.230469 L 302.148438 118.683594"/><path fill="#fff" fill-opacity="1" fill-rule="nonzero" d="M 283.828125 113.457031 L 292.21875 101.417969 L 275.230469 96.574219 L 276.824219 111.464844 L 283.828125 113.457031"/><path fill="#1b171b" fill-opacity="1" fill-rule="nonzero" d="M 283.074219 113.246094 L 284.34375 102.199219 L 281.828125 101.476562 L 277.074219 111.53125 L 283.074219 113.246094"/><path fill="#d5835c" fill-opacity="1" fill-rule="nonzero" d="M 276.535156 96.300781 C 276.535156 96.300781 280.324219 101.050781 282.992188 101.8125 C 285.65625 102.570312 291.382812 100.535156 291.382812 100.535156 L 292.101562 95.640625 L 278.589844 91.785156 L 276.535156 96.300781"/><path fill="#fff" fill-opacity="1" fill-rule="nonzero" d="M 276.253906 94.144531 L 275.230469 96.574219 C 275.230469 96.574219 280.191406 101.515625 282.859375 102.277344 C 285.523438 103.039062 292.21875 101.417969 292.21875 101.417969 L 292.488281 99.074219 L 283.148438 101.25 L 276.253906 94.144531"/><path fill="#f9aa78" fill-opacity="1" fill-rule="nonzero" d="M 305.351562 74.601562 C 306.996094 68.832031 303.820312 61.125 294.992188 58.605469 C 286.160156 56.085938 279.394531 60.960938 277.746094 66.730469 C 277.660156 67.03125 273.863281 82.949219 274.550781 87.039062 C 275.238281 91.125 279.511719 97.777344 283.722656 98.996094 C 288.328125 100.328125 294.871094 97.3125 297.988281 93.71875 C 301.109375 90.128906 305.351562 74.601562 305.351562 74.601562"/><path fill="#f9aa78" fill-opacity="1" fill-rule="nonzero" d="M 277.683594 75.589844 C 277.800781 74.195312 276.898438 72.617188 275.070312 72.5 C 273.242188 72.386719 272.785156 73.992188 272.667969 75.378906 C 272.660156 75.453125 272.492188 79.253906 272.777344 80.144531 C 273.058594 81.035156 273.375 82.660156 274.699219 82.597656 C 275.578125 82.558594 276.449219 81.273438 276.933594 80.296875 C 277.417969 79.324219 277.683594 75.589844 277.683594 75.589844"/><path fill="#f9aa78" fill-opacity="1" fill-rule="nonzero" d="M 301.296875 82.320312 C 301.929688 81.082031 303.53125 80.210938 305.144531 81.078125 C 306.753906 81.941406 306.453125 83.640625 305.820312 84.882812 C 305.785156 84.949219 303.933594 87.980469 303.214844 88.875 C 302.625 89.609375 301.242188 90.804688 300.140625 89.933594 C 299.453125 89.390625 299.34375 87.800781 299.449219 86.71875 C 299.550781 85.636719 301.296875 82.320312 301.296875 82.320312"/><path fill="#261617" fill-opacity="1" fill-rule="nonzero" d="M 307.667969 72.972656 C 307.898438 68.757812 304.226562 59.679688 295.402344 57.164062 C 286.570312 54.644531 279.941406 58.875 277.363281 63.699219 C 275.375 67.414062 274.867188 69.703125 274.253906 72.585938 C 275.183594 72.457031 275.765625 72.433594 276.371094 72.902344 C 276.019531 74.617188 275.625 76.640625 275.304688 78.496094 C 275.5625 79.324219 276.125 79.257812 276.125 79.257812 L 280.707031 67.183594 C 280.707031 67.183594 296.4375 81.800781 303.214844 73.40625 C 304.195312 72.1875 300.75 85.847656 300.75 85.847656 C 300.75 85.847656 301.261719 86.667969 301.84375 85.679688 C 302.449219 84.015625 302.777344 82.667969 303.386719 81.148438 C 303.738281 80.273438 304.726562 80.890625 305.550781 81.347656 C 306.546875 79.085938 307.441406 77.191406 307.667969 72.972656"/><path fill="#1b171b" fill-opacity="1" fill-rule="nonzero" d="M 280.882812 100.976562 C 280.511719 102.28125 281.179688 103.613281 282.378906 103.953125 C 283.578125 104.296875 284.847656 103.515625 285.21875 102.214844 C 285.589844 100.910156 284.710938 101.214844 283.511719 100.871094 C 282.316406 100.535156 281.253906 99.675781 280.882812 100.976562"/><path fill="#cd8158" fill-opacity="1" fill-rule="nonzero" d="M 286.9375 88.113281 L 289.359375 79.628906 L 289.503906 86.777344 L 286.9375 88.113281"/><path fill="#cd8158" fill-opacity="1" fill-rule="nonzero" d="M 290.113281 93.199219 C 290.113281 93.199219 289.527344 93.160156 288.757812 93.136719 C 287.710938 93.105469 286.621094 92.554688 285.644531 92.277344 C 284.792969 92.03125 283.582031 91.964844 282.796875 91.5 C 282.058594 91.066406 281.417969 90.734375 281.363281 90.703125 C 281.421875 90.734375 282.164062 91.117188 282.945312 91.339844 C 283.765625 91.574219 284.515625 91.355469 285.804688 91.71875 C 287.089844 92.085938 287.683594 92.664062 288.480469 92.886719 C 289.273438 93.117188 290.113281 93.199219 290.113281 93.199219 M 281.363281 90.703125 C 281.359375 90.703125 281.359375 90.703125 281.359375 90.703125 C 281.359375 90.703125 281.359375 90.703125 281.363281 90.703125"/><path fill="#261617" fill-opacity="1" fill-rule="nonzero" d="M 295.929688 84.609375 C 295.613281 85.34375 294.761719 85.679688 294.027344 85.363281 C 293.292969 85.046875 292.953125 84.195312 293.265625 83.460938 C 293.582031 82.726562 294.433594 82.390625 295.167969 82.707031 C 295.902344 83.023438 296.242188 83.875 295.929688 84.609375"/><path fill="#261617" fill-opacity="1" fill-rule="nonzero" d="M 295.5625 83.296875 C 296.539062 83.71875 297.339844 84.269531 297.875 84.828125 C 297.738281 84.058594 296.949219 83.214844 295.808594 82.722656 C 294.667969 82.230469 293.515625 82.238281 292.863281 82.667969 C 293.636719 82.675781 294.589844 82.878906 295.5625 83.296875"/><path fill="#261617" fill-opacity="1" fill-rule="nonzero" d="M 281.023438 80.402344 C 280.945312 81.195312 281.53125 81.910156 282.328125 81.984375 C 283.125 82.058594 283.828125 81.472656 283.90625 80.679688 C 283.980469 79.882812 283.398438 79.179688 282.601562 79.101562 C 281.808594 79.027344 281.097656 79.605469 281.023438 80.402344"/><path fill="#261617" fill-opacity="1" fill-rule="nonzero" d="M 281.972656 79.433594 C 280.917969 79.332031 279.945312 79.425781 279.210938 79.65625 C 279.699219 79.050781 280.792969 78.691406 282.035156 78.808594 C 283.265625 78.925781 284.277344 79.488281 284.640625 80.179688 C 283.960938 79.8125 283.027344 79.53125 281.972656 79.433594"/><path fill="#261617" fill-opacity="1" fill-rule="nonzero" d="M 298.269531 78.714844 C 297.164062 78.035156 295.675781 77.726562 295.507812 77.820312 C 295.34375 77.90625 294.789062 78.660156 294.996094 78.832031 C 295.199219 79.003906 296.027344 78.679688 297.695312 79.5 C 298.8125 80.050781 299.949219 81.46875 300.257812 82.042969 C 300.183594 81 299.671875 79.582031 298.269531 78.714844"/><path fill="#261617" fill-opacity="1" fill-rule="nonzero" d="M 282.546875 74.230469 C 283.84375 74.234375 285.273438 74.761719 285.367188 74.925781 C 285.460938 75.089844 285.535156 76.023438 285.269531 76.0625 C 285.003906 76.097656 284.472656 75.386719 282.621094 75.199219 C 281.382812 75.078125 279.667969 75.691406 279.101562 76.011719 C 279.714844 75.160156 280.898438 74.226562 282.546875 74.230469"/><path fill="#d3d2d2" fill-opacity="1" fill-rule="nonzero" d="M 127.9375 231.253906 L 77.59375 231.253906 L 77.59375 225.738281 L 126.945312 225.738281 L 127.9375 231.253906"/><path fill="#d3d2d2" fill-opacity="1" fill-rule="nonzero" d="M 213.265625 81.621094 L 213.265625 79.691406 L 216.949219 80.742188 L 216.949219 80.960938 L 213.265625 81.621094 M 216.949219 74.355469 L 213.265625 73.304688 L 213.265625 68.667969 L 216.949219 69.71875 L 216.949219 74.355469 M 216.949219 63.335938 L 213.265625 62.285156 L 213.265625 55.253906 L 216.949219 56.308594 L 216.949219 63.335938 M 216.949219 49.925781 L 213.265625 48.878906 L 213.265625 43.996094 L 216.949219 45.046875 L 216.949219 49.925781 M 213.265625 40.972656 L 213.265625 39.210938 L 213.769531 39.210938 L 213.265625 40.972656"/><path fill="#37858d" fill-opacity="1" fill-rule="nonzero" d="M 216.949219 45.046875 L 213.265625 43.996094 L 213.265625 40.972656 L 213.769531 39.210938 L 216.949219 39.210938 L 216.949219 45.046875"/><path fill="#b0aeaf" fill-opacity="1" fill-rule="nonzero" d="M 216.949219 56.308594 L 213.265625 55.253906 L 213.265625 48.878906 L 216.949219 49.925781 L 216.949219 56.308594"/><path fill="#b0aeaf" fill-opacity="1" fill-rule="nonzero" d="M 216.949219 69.71875 L 213.265625 68.667969 L 213.265625 62.285156 L 216.949219 63.335938 L 216.949219 69.71875"/><path fill="#b0aeaf" fill-opacity="1" fill-rule="nonzero" d="M 216.949219 80.742188 L 213.265625 79.691406 L 213.265625 73.304688 L 216.949219 74.355469 L 216.949219 80.742188"/><g clip-path="url(#8b958b32b9)"><path fill="#fff" fill-opacity="1" fill-rule="nonzero" d="M 73.90625 225.738281 L 213.265625 225.738281 L 213.265625 33.6875 L 73.90625 33.6875 Z M 73.90625 225.738281"/></g><path fill="#42a3ab" fill-opacity="1" fill-rule="nonzero" d="M 138.164062 60.765625 L 89.792969 60.765625 L 89.792969 48.492188 L 138.164062 48.492188 L 138.164062 60.765625"/><path fill="#d3d2d2" fill-opacity="1" fill-rule="nonzero" d="M 137.566406 65.457031 L 89.792969 65.457031 L 89.792969 71.59375 L 137.566406 71.59375 L 137.566406 65.457031"/><path fill="#d3d2d2" fill-opacity="1" fill-rule="nonzero" d="M 137.566406 78.355469 L 89.792969 78.355469 L 89.792969 84.488281 L 137.566406 84.488281 L 137.566406 78.355469"/><path fill="#d3d2d2" fill-opacity="1" fill-rule="nonzero" d="M 89.792969 95.085938 L 137.566406 95.085938 L 137.566406 88.953125 L 89.792969 88.953125 Z M 89.792969 95.085938"/><path fill="#d3d2d2" fill-opacity="1" fill-rule="nonzero" d="M 89.792969 108.214844 L 137.566406 108.214844 L 137.566406 102.082031 L 89.792969 102.082031 Z M 89.792969 108.214844"/><path fill="#d3d2d2" fill-opacity="1" fill-rule="nonzero" d="M 89.792969 161.480469 L 196.660156 161.480469 L 196.660156 155.34375 L 89.792969 155.34375 Z M 89.792969 161.480469"/><path fill="#d3d2d2" fill-opacity="1" fill-rule="nonzero" d="M 89.792969 176.628906 L 196.660156 176.628906 L 196.660156 170.488281 L 89.792969 170.488281 Z M 89.792969 176.628906"/><path fill="#f3d28b" fill-opacity="1" fill-rule="nonzero" d="M 89.792969 204.160156 L 120.875 204.160156 L 120.875 180.777344 L 89.792969 180.777344 Z M 89.792969 204.160156"/><path fill="#f3d28b" fill-opacity="1" fill-rule="nonzero" d="M 127.679688 204.160156 L 158.765625 204.160156 L 158.765625 180.777344 L 127.679688 180.777344 Z M 127.679688 204.160156"/><path fill="#f3d28b" fill-opacity="1" fill-rule="nonzero" d="M 165.574219 204.160156 L 196.660156 204.160156 L 196.660156 180.777344 L 165.574219 180.777344 Z M 165.574219 204.160156"/><path fill="#d3d2d2" fill-opacity="1" fill-rule="nonzero" d="M 157.667969 120.328125 L 196.660156 120.328125 L 196.660156 114.191406 L 157.667969 114.191406 Z M 157.667969 120.328125"/><path fill="#d3d2d2" fill-opacity="1" fill-rule="nonzero" d="M 157.667969 131.203125 L 196.660156 131.203125 L 196.660156 125.066406 L 157.667969 125.066406 Z M 157.667969 131.203125"/><path fill="#d3d2d2" fill-opacity="1" fill-rule="nonzero" d="M 157.667969 142.078125 L 196.660156 142.078125 L 196.660156 135.941406 L 157.667969 135.941406 Z M 157.667969 142.078125"/><path fill="#65bed9" fill-opacity="1" fill-rule="nonzero" d="M 89.792969 142.078125 L 151.167969 142.078125 L 151.167969 114.191406 L 89.792969 114.191406 Z M 89.792969 142.078125"/><path fill="#f68722" fill-opacity="1" fill-rule="nonzero" d="M 151.167969 108.214844 L 196.660156 108.214844 L 196.660156 48.488281 L 151.167969 48.488281 Z M 151.167969 108.214844"/><path fill="#23837f" fill-opacity="1" fill-rule="nonzero" d="M 152.207031 108.214844 L 195.621094 108.214844 C 195.621094 108.214844 194.761719 93.917969 193.339844 92.320312 C 191.914062 90.722656 180.40625 87.21875 180.40625 87.21875 L 167.578125 87.21875 C 167.578125 87.21875 155.453125 90.453125 154.671875 92.320312 C 153.894531 94.183594 152.207031 108.214844 152.207031 108.214844"/><path fill="#7d412b" fill-opacity="1" fill-rule="nonzero" d="M 167.578125 86.988281 C 167.578125 86.988281 171.6875 89.917969 173.992188 89.917969 C 176.292969 89.917969 180.40625 86.988281 180.40625 86.988281 L 179.863281 82.910156 L 168.191406 82.910156 L 167.578125 86.988281"/><path fill="#175452" fill-opacity="1" fill-rule="nonzero" d="M 167.3125 84.980469 L 166.59375 87.503906 L 170.703125 92.363281 L 173.992188 89.917969 L 178.035156 92.789062 L 181.277344 87.503906 L 180.875 84.980469 L 173.992188 89.433594 L 167.3125 84.980469"/><path fill="#9e5439" fill-opacity="1" fill-rule="nonzero" d="M 185.65625 63.085938 C 185.65625 58.101562 181.363281 52.664062 173.734375 52.664062 C 166.105469 52.664062 161.8125 58.101562 161.8125 63.085938 C 161.8125 63.34375 162.402344 76.921875 163.882812 80.035156 C 165.363281 83.148438 170.296875 87.488281 173.933594 87.503906 C 177.917969 87.519531 182.460938 83.613281 184.136719 80.035156 C 185.804688 76.457031 185.65625 63.085938 185.65625 63.085938"/><path fill="#261617" fill-opacity="1" fill-rule="nonzero" d="M 162.984375 76.421875 C 163.234375 78 163.535156 79.308594 163.882812 80.035156 C 165.363281 83.148438 170.296875 87.488281 173.933594 87.503906 C 177.917969 87.519531 182.460938 83.613281 184.136719 80.035156 C 184.507812 79.234375 184.789062 77.945312 185.003906 76.421875 C 185.003906 76.421875 183.886719 79.292969 182.980469 80.117188 C 182.078125 80.9375 179.59375 82.851562 178.195312 83.625 C 176.765625 84.414062 172.296875 84.734375 169.585938 83.460938 C 168.714844 83.054688 165.925781 81.21875 165.261719 80.144531 C 164.605469 79.066406 162.984375 76.421875 162.984375 76.421875"/><path fill="#9e5439" fill-opacity="1" fill-rule="nonzero" d="M 163.78125 70.175781 C 163.550781 69.035156 162.472656 67.980469 160.984375 68.304688 C 159.5 68.628906 159.492188 70.015625 159.722656 71.152344 C 159.734375 71.210938 160.464844 74.289062 160.894531 74.933594 C 161.320312 75.582031 161.945312 76.808594 162.988281 76.457031 C 163.679688 76.226562 164.085938 75 164.25 74.109375 C 164.414062 73.222656 163.78125 70.175781 163.78125 70.175781"/><path fill="#9e5439" fill-opacity="1" fill-rule="nonzero" d="M 184.175781 70.175781 C 184.398438 69.035156 185.484375 67.980469 186.96875 68.304688 C 188.453125 68.628906 188.597656 70.054688 188.375 71.191406 C 188.363281 71.25 187.570312 74.097656 187.203125 74.972656 C 186.898438 75.691406 186.070312 76.964844 184.992188 76.519531 C 184.316406 76.242188 183.871094 75 183.703125 74.109375 C 183.542969 73.222656 184.175781 70.175781 184.175781 70.175781"/><path fill="#261617" fill-opacity="1" fill-rule="nonzero" d="M 181.265625 81.519531 C 181.902344 81.414062 181.59375 81.992188 180.980469 82.570312 C 180.230469 83.273438 179.019531 83.976562 178.492188 83.453125 C 178.484375 81.679688 177.167969 79.496094 176.3125 79.050781 C 175.316406 78.527344 172.085938 78.386719 170.972656 79.238281 C 169.828125 80.101562 169.289062 82.152344 169.375 83.703125 C 169.691406 84.65625 165.835938 81.960938 167.222656 81.960938 C 168.207031 81.960938 169.488281 79.023438 170.433594 78.152344 C 171.710938 76.984375 176.507812 76.691406 177.507812 78.386719 C 178.195312 79.558594 179.847656 81.742188 181.265625 81.519531"/><path fill="#ae684b" fill-opacity="1" fill-rule="nonzero" d="M 163.578125 64.683594 C 163.542969 64.683594 163.5 64.667969 163.464844 64.636719 C 162.824219 64.132812 162.597656 60.039062 164.949219 57.074219 C 166.847656 54.675781 169.847656 53.757812 171.269531 53.757812 C 171.605469 53.757812 171.855469 53.808594 171.976562 53.90625 C 172.613281 54.410156 169.03125 55.484375 166.679688 58.449219 C 164.476562 61.226562 164.136719 64.683594 163.578125 64.683594"/><path fill="#84402b" fill-opacity="1" fill-rule="nonzero" d="M 173.609375 76.375 L 173.609375 69.046875 L 175.460938 74.722656 L 173.609375 76.375"/><path fill="#84402b" fill-opacity="1" fill-rule="nonzero" d="M 172.421875 81.109375 C 172.210938 81.109375 172.007812 81.085938 171.828125 81.03125 C 171.277344 80.859375 170.808594 80.742188 170.738281 80.726562 C 170.816406 80.742188 171.355469 80.867188 171.894531 80.867188 C 172.480469 80.867188 172.933594 80.523438 173.851562 80.523438 C 174.765625 80.523438 175.265625 80.847656 175.832031 80.847656 C 176.398438 80.847656 176.96875 80.722656 176.96875 80.722656 C 176.96875 80.722656 176.570312 80.824219 176.0625 80.980469 C 175.816406 81.054688 175.550781 81.082031 175.28125 81.082031 C 174.796875 81.082031 174.292969 81 173.851562 81 C 173.425781 81 172.902344 81.109375 172.421875 81.109375 M 170.738281 80.726562 C 170.734375 80.722656 170.730469 80.722656 170.730469 80.722656 C 170.730469 80.722656 170.734375 80.722656 170.738281 80.726562"/><path fill="#261617" fill-opacity="1" fill-rule="nonzero" d="M 180.351562 69.78125 C 180.265625 70.4375 179.660156 70.90625 179.003906 70.820312 C 178.34375 70.734375 177.878906 70.128906 177.96875 69.472656 C 178.050781 68.816406 178.652344 68.347656 179.3125 68.433594 C 179.972656 68.519531 180.4375 69.125 180.351562 69.78125"/><path fill="#261617" fill-opacity="1" fill-rule="nonzero" d="M 179.761719 68.820312 C 180.636719 68.929688 181.40625 69.191406 181.957031 69.515625 C 181.671875 68.929688 180.847656 68.433594 179.832031 68.300781 C 178.804688 68.167969 177.882812 68.4375 177.460938 68.929688 C 178.082031 68.757812 178.886719 68.707031 179.761719 68.820312"/><path fill="#261617" fill-opacity="1" fill-rule="nonzero" d="M 167.484375 69.816406 C 167.605469 70.46875 168.230469 70.90625 168.886719 70.78125 C 169.539062 70.660156 169.972656 70.035156 169.847656 69.382812 C 169.730469 68.730469 169.101562 68.296875 168.449219 68.417969 C 167.796875 68.535156 167.363281 69.164062 167.484375 69.816406"/><path fill="#261617" fill-opacity="1" fill-rule="nonzero" d="M 168.023438 68.828125 C 167.15625 68.988281 166.402344 69.285156 165.863281 69.636719 C 166.121094 69.035156 166.914062 68.5 167.929688 68.3125 C 168.945312 68.128906 169.875 68.34375 170.324219 68.816406 C 169.695312 68.675781 168.886719 68.664062 168.023438 68.828125"/><path fill="#261617" fill-opacity="1" fill-rule="nonzero" d="M 180.882812 64.539062 C 179.84375 64.246094 178.582031 64.34375 178.472656 64.453125 C 178.359375 64.558594 178.085938 65.292969 178.289062 65.382812 C 178.492188 65.472656 179.078125 65.023438 180.601562 65.296875 C 181.617188 65.480469 182.851562 66.359375 183.230469 66.746094 C 182.929688 65.929688 182.199219 64.914062 180.882812 64.539062"/><path fill="#261617" fill-opacity="1" fill-rule="nonzero" d="M 167.292969 64.539062 C 168.332031 64.246094 169.59375 64.34375 169.707031 64.453125 C 169.816406 64.558594 170.089844 65.292969 169.886719 65.382812 C 169.6875 65.472656 169.097656 65.023438 167.574219 65.296875 C 166.558594 65.480469 165.324219 66.359375 164.949219 66.746094 C 165.246094 65.929688 165.976562 64.914062 167.292969 64.539062"/><path fill="#d3d2d2" fill-opacity="1" fill-rule="nonzero" d="M 138.53125 290.183594 L 127.9375 231.253906 L 216.949219 231.253906 L 216.949219 216.597656 L 269.589844 231.609375 L 275.6875 265.523438 L 138.53125 290.183594"/><path fill="#d3d2d2" fill-opacity="1" fill-rule="nonzero" d="M 269.589844 231.609375 L 216.949219 216.597656 L 216.949219 194.160156 L 239.46875 200.582031 L 245.882812 178.09375 L 216.949219 169.84375 L 216.949219 165.53125 L 259.914062 177.78125 L 260.730469 182.324219 L 252.429688 179.957031 L 246.015625 202.449219 L 265.339844 207.960938 L 269.589844 231.609375 M 258.703125 171.050781 L 216.949219 159.148438 L 216.949219 149.777344 L 256.925781 161.179688 L 258.703125 171.050781 M 255.71875 154.453125 L 216.949219 143.398438 L 216.949219 129.597656 L 249.1875 138.796875 L 251.464844 130.808594 L 255.71875 154.453125 M 247.605469 109.34375 L 216.949219 100.601562 L 216.949219 94.386719 L 245.398438 102.5 L 245.996094 100.394531 L 247.605469 109.34375 M 245.21875 96.066406 L 216.949219 88.007812 L 216.949219 80.960938 L 217.417969 80.875 L 243.84375 88.410156 L 245.21875 96.066406 M 242.632812 81.679688 L 231.148438 78.402344 L 241.125 76.609375 L 241.753906 76.789062 L 242.632812 81.679688"/><path fill="#b0aeaf" fill-opacity="1" fill-rule="nonzero" d="M 241.753906 76.789062 L 241.125 76.609375 L 241.703125 76.507812 L 241.753906 76.789062"/><path fill="#b0aeaf" fill-opacity="1" fill-rule="nonzero" d="M 243.84375 88.410156 L 217.417969 80.875 L 231.148438 78.402344 L 242.632812 81.679688 L 243.84375 88.410156"/><path fill="#b0aeaf" fill-opacity="1" fill-rule="nonzero" d="M 245.398438 102.5 L 216.949219 94.386719 L 216.949219 88.007812 L 245.21875 96.066406 L 245.996094 100.394531 L 245.398438 102.5"/><path fill="#b0aeaf" fill-opacity="1" fill-rule="nonzero" d="M 256.925781 161.179688 L 216.949219 149.777344 L 216.949219 143.398438 L 255.71875 154.453125 L 256.925781 161.179688"/><path fill="#b0aeaf" fill-opacity="1" fill-rule="nonzero" d="M 259.914062 177.78125 L 216.949219 165.53125 L 216.949219 159.148438 L 258.703125 171.050781 L 259.914062 177.78125"/><path fill="#c8ad72" fill-opacity="1" fill-rule="nonzero" d="M 239.46875 200.582031 L 216.949219 194.160156 L 216.949219 169.84375 L 245.882812 178.09375 L 239.46875 200.582031"/><path fill="#c8ad72" fill-opacity="1" fill-rule="nonzero" d="M 265.339844 207.960938 L 246.015625 202.449219 L 252.429688 179.957031 L 260.730469 182.324219 L 265.339844 207.960938"/><path fill="#549cb3" fill-opacity="1" fill-rule="nonzero" d="M 249.1875 138.796875 L 216.949219 129.597656 L 216.949219 100.601562 L 247.605469 109.34375 L 251.464844 130.808594 L 249.1875 138.796875"/><path fill="#b0aeaf" fill-opacity="1" fill-rule="nonzero" d="M 216.949219 231.253906 L 127.9375 231.253906 L 126.945312 225.738281 L 213.265625 225.738281 L 213.265625 215.546875 L 216.949219 216.597656 L 216.949219 231.253906"/><path fill="#b0aeaf" fill-opacity="1" fill-rule="nonzero" d="M 216.949219 216.597656 L 213.265625 215.546875 L 213.265625 193.109375 L 216.949219 194.160156 L 216.949219 216.597656 M 213.265625 179.121094 L 213.265625 164.480469 L 216.949219 165.53125 L 216.949219 169.84375 L 215.988281 169.570312 L 213.265625 179.121094 M 216.949219 159.148438 L 213.265625 158.097656 L 213.265625 148.726562 L 216.949219 149.777344 L 216.949219 159.148438 M 216.949219 143.398438 L 213.265625 142.347656 L 213.265625 128.550781 L 216.949219 129.597656 L 216.949219 143.398438 M 216.949219 100.601562 L 213.265625 99.550781 L 213.265625 93.339844 L 216.949219 94.386719 L 216.949219 100.601562 M 216.949219 88.007812 L 213.265625 86.957031 L 213.265625 81.621094 L 216.949219 80.960938 L 216.949219 88.007812"/><path fill="#939192" fill-opacity="1" fill-rule="nonzero" d="M 216.949219 94.386719 L 213.265625 93.339844 L 213.265625 86.957031 L 216.949219 88.007812 L 216.949219 94.386719"/><path fill="#939192" fill-opacity="1" fill-rule="nonzero" d="M 216.949219 149.777344 L 213.265625 148.726562 L 213.265625 142.347656 L 216.949219 143.398438 L 216.949219 149.777344"/><path fill="#939192" fill-opacity="1" fill-rule="nonzero" d="M 216.949219 165.53125 L 213.265625 164.480469 L 213.265625 158.097656 L 216.949219 159.148438 L 216.949219 165.53125"/><path fill="#a68f5e" fill-opacity="1" fill-rule="nonzero" d="M 216.949219 194.160156 L 213.265625 193.109375 L 213.265625 179.121094 L 215.988281 169.570312 L 216.949219 169.84375 L 216.949219 194.160156"/><path fill="#468195" fill-opacity="1" fill-rule="nonzero" d="M 216.949219 129.597656 L 213.265625 128.550781 L 213.265625 99.550781 L 216.949219 100.601562 L 216.949219 129.597656"/><path fill="#d3d2d2" fill-opacity="1" fill-rule="nonzero" d="M 213.265625 225.738281 L 126.945312 225.738281 L 120.875 191.984375 L 120.875 180.777344 L 118.863281 180.777344 L 118.113281 176.628906 L 196.660156 176.628906 L 196.660156 170.488281 L 117.007812 170.488281 L 115.390625 161.480469 L 196.660156 161.480469 L 196.660156 155.347656 L 114.289062 155.347656 L 111.902344 142.078125 L 151.167969 142.078125 L 151.167969 114.191406 L 106.886719 114.191406 L 105.808594 108.214844 L 137.566406 108.214844 L 137.566406 102.082031 L 104.707031 102.082031 L 104.546875 101.164062 L 151.167969 92.785156 L 151.167969 108.214844 L 196.660156 108.214844 L 196.660156 84.609375 L 213.265625 81.621094 L 213.265625 225.738281 M 165.574219 180.777344 L 165.574219 204.160156 L 196.660156 204.160156 L 196.660156 180.777344 L 165.574219 180.777344 M 127.679688 180.777344 L 127.679688 204.160156 L 158.765625 204.160156 L 158.765625 180.777344 L 127.679688 180.777344 M 157.667969 135.941406 L 157.667969 142.078125 L 196.660156 142.078125 L 196.660156 135.941406 L 157.667969 135.941406 M 157.667969 125.066406 L 157.667969 131.203125 L 196.660156 131.203125 L 196.660156 125.066406 L 157.667969 125.066406 M 157.667969 114.191406 L 157.667969 120.328125 L 196.660156 120.328125 L 196.660156 114.191406 L 157.667969 114.191406"/><path fill="#b0aeaf" fill-opacity="1" fill-rule="nonzero" d="M 137.566406 108.214844 L 105.808594 108.214844 L 104.707031 102.082031 L 137.566406 102.082031 L 137.566406 108.214844"/><path fill="#b0aeaf" fill-opacity="1" fill-rule="nonzero" d="M 196.660156 161.480469 L 115.390625 161.480469 L 114.289062 155.347656 L 196.660156 155.347656 L 196.660156 161.480469"/><path fill="#b0aeaf" fill-opacity="1" fill-rule="nonzero" d="M 196.660156 176.628906 L 118.113281 176.628906 L 117.007812 170.488281 L 196.660156 170.488281 L 196.660156 176.628906"/><path fill="#c8ad72" fill-opacity="1" fill-rule="nonzero" d="M 120.875 191.984375 L 118.863281 180.777344 L 120.875 180.777344 L 120.875 191.984375"/><path fill="#c8ad72" fill-opacity="1" fill-rule="nonzero" d="M 127.679688 204.160156 L 158.765625 204.160156 L 158.765625 180.777344 L 127.679688 180.777344 Z M 127.679688 204.160156"/><path fill="#c8ad72" fill-opacity="1" fill-rule="nonzero" d="M 165.574219 204.160156 L 196.660156 204.160156 L 196.660156 180.777344 L 165.574219 180.777344 Z M 165.574219 204.160156"/><path fill="#b0aeaf" fill-opacity="1" fill-rule="nonzero" d="M 157.667969 120.328125 L 196.660156 120.328125 L 196.660156 114.191406 L 157.667969 114.191406 Z M 157.667969 120.328125"/><path fill="#b0aeaf" fill-opacity="1" fill-rule="nonzero" d="M 157.667969 131.203125 L 196.660156 131.203125 L 196.660156 125.066406 L 157.667969 125.066406 Z M 157.667969 131.203125"/><path fill="#b0aeaf" fill-opacity="1" fill-rule="nonzero" d="M 157.667969 142.078125 L 196.660156 142.078125 L 196.660156 135.941406 L 157.667969 135.941406 Z M 157.667969 142.078125"/><path fill="#549cb3" fill-opacity="1" fill-rule="nonzero" d="M 151.167969 142.078125 L 111.902344 142.078125 L 106.886719 114.191406 L 151.167969 114.191406 L 151.167969 142.078125"/><path fill="#cb6e1c" fill-opacity="1" fill-rule="nonzero" d="M 196.660156 108.214844 L 195.621094 108.214844 C 195.621094 108.214844 194.761719 93.917969 193.339844 92.320312 C 192.152344 90.992188 183.980469 88.339844 181.273438 87.492188 L 181.253906 87.375 L 196.660156 84.609375 L 196.660156 108.214844 M 152.207031 108.214844 L 151.167969 108.214844 L 151.167969 92.785156 L 154.785156 92.132812 C 154.734375 92.199219 154.699219 92.261719 154.671875 92.320312 C 153.894531 94.183594 152.207031 108.214844 152.207031 108.214844"/><path fill="#1d6c69" fill-opacity="1" fill-rule="nonzero" d="M 195.621094 108.214844 L 152.207031 108.214844 C 152.207031 108.214844 153.894531 94.183594 154.671875 92.320312 C 154.699219 92.261719 154.734375 92.199219 154.785156 92.132812 L 168.433594 89.679688 L 170.703125 92.363281 L 173.992188 89.917969 L 178.035156 92.789062 L 181.277344 87.503906 L 181.273438 87.492188 C 183.980469 88.339844 192.152344 90.992188 193.339844 92.320312 C 194.761719 93.917969 195.621094 108.214844 195.621094 108.214844"/><path fill="#6a3624" fill-opacity="1" fill-rule="nonzero" d="M 173.992188 89.433594 L 173.101562 88.839844 L 175.605469 88.390625 L 173.992188 89.433594"/><path fill="#134746" fill-opacity="1" fill-rule="nonzero" d="M 178.035156 92.789062 L 173.992188 89.917969 L 170.703125 92.363281 L 168.433594 89.679688 L 173.101562 88.839844 L 173.992188 89.433594 L 175.605469 88.390625 L 181.253906 87.375 L 181.273438 87.492188 L 181.277344 87.503906 L 178.035156 92.789062"/><g clip-path="url(#39d993a09f)"><path fill="#fff" fill-opacity="1" fill-rule="nonzero" d="M 279.246094 266.90625 L 142.085938 291.5625 L 108.101562 102.546875 L 245.257812 77.886719 L 279.246094 266.90625"/></g><path fill="#42a3ab" fill-opacity="1" fill-rule="nonzero" d="M 176.132812 117.820312 L 128.523438 126.378906 L 126.355469 114.300781 L 173.964844 105.742188 L 176.132812 117.820312"/><path fill="#d3d2d2" fill-opacity="1" fill-rule="nonzero" d="M 176.378906 122.542969 L 129.359375 131 L 130.441406 137.039062 L 177.464844 128.585938 L 176.378906 122.542969"/><path fill="#d3d2d2" fill-opacity="1" fill-rule="nonzero" d="M 178.660156 135.238281 L 131.640625 143.691406 L 132.726562 149.730469 L 179.746094 141.277344 L 178.660156 135.238281"/><path fill="#d3d2d2" fill-opacity="1" fill-rule="nonzero" d="M 180.535156 145.671875 L 133.515625 154.121094 L 134.601562 160.164062 L 181.621094 151.710938 L 180.535156 145.671875"/><path fill="#d3d2d2" fill-opacity="1" fill-rule="nonzero" d="M 182.855469 158.589844 L 135.839844 167.042969 L 136.925781 173.082031 L 183.949219 164.628906 L 182.855469 158.589844"/><path fill="#d3d2d2" fill-opacity="1" fill-rule="nonzero" d="M 251.527344 206.597656 L 146.351562 225.507812 L 145.265625 219.46875 L 250.445312 200.558594 L 251.527344 206.597656"/><path fill="#d3d2d2" fill-opacity="1" fill-rule="nonzero" d="M 254.210938 221.503906 L 149.03125 240.417969 L 147.945312 234.375 L 253.121094 215.464844 L 254.210938 221.503906"/><path fill="#f3d28b" fill-opacity="1" fill-rule="nonzero" d="M 184.5 262.011719 L 153.90625 267.515625 L 149.765625 244.496094 L 180.359375 238.996094 L 184.5 262.011719"/><path fill="#f3d28b" fill-opacity="1" fill-rule="nonzero" d="M 221.789062 255.308594 L 191.199219 260.8125 L 187.058594 237.792969 L 217.652344 232.292969 L 221.789062 255.308594"/><path fill="#f3d28b" fill-opacity="1" fill-rule="nonzero" d="M 259.085938 248.605469 L 228.492188 254.109375 L 224.351562 231.085938 L 254.945312 225.589844 L 259.085938 248.605469"/><path fill="#d3d2d2" fill-opacity="1" fill-rule="nonzero" d="M 244.242188 166.09375 L 205.871094 172.992188 L 204.785156 166.953125 L 243.160156 160.054688 L 244.242188 166.09375"/><path fill="#d3d2d2" fill-opacity="1" fill-rule="nonzero" d="M 246.171875 176.800781 L 207.796875 183.695312 L 206.710938 177.65625 L 245.085938 170.757812 L 246.171875 176.800781"/><path fill="#d3d2d2" fill-opacity="1" fill-rule="nonzero" d="M 248.097656 187.5 L 209.71875 194.402344 L 208.636719 188.363281 L 247.007812 181.464844 L 248.097656 187.5"/><path fill="#65bed9" fill-opacity="1" fill-rule="nonzero" d="M 203.320312 195.550781 L 142.917969 206.40625 L 137.984375 178.964844 L 198.390625 168.105469 L 203.320312 195.550781"/><path fill="#7486a1" fill-opacity="1" fill-rule="nonzero" d="M 242.101562 154.175781 L 197.332031 162.222656 L 186.761719 103.441406 L 231.53125 95.390625 L 242.101562 154.175781"/><path fill="#261617" fill-opacity="1" fill-rule="nonzero" d="M 224.878906 110.347656 C 223.984375 105.351562 218.027344 100.789062 209.191406 102.378906 C 200.355469 103.96875 196.363281 110.316406 197.261719 115.3125 C 197.304688 115.574219 199.800781 126.769531 202.429688 130.285156 C 205.484375 134.363281 211.003906 136.644531 215.21875 135.902344 C 219.835938 135.089844 224.042969 131.675781 225.886719 126.070312 C 227.417969 121.398438 224.878906 110.347656 224.878906 110.347656"/><path fill="#b42026" fill-opacity="1" fill-rule="nonzero" d="M 199.855469 161.570312 L 239.511719 154.441406 C 239.511719 154.441406 237.570312 141.480469 234.355469 138.910156 C 231.144531 136.34375 225.550781 138.230469 222.140625 135.984375 C 218.730469 133.730469 211.726562 134.996094 209.277344 138.296875 C 206.828125 141.59375 201.925781 142.167969 199.46875 145.1875 C 197.011719 148.199219 199.855469 161.570312 199.855469 161.570312"/><path fill="#d5835c" fill-opacity="1" fill-rule="nonzero" d="M 209.277344 138.296875 C 209.585938 139.484375 214.433594 143.308594 216.742188 142.894531 C 219.054688 142.476562 221.769531 137.242188 222.140625 135.984375 C 220.035156 134.542969 220.796875 131.609375 220.796875 131.609375 L 209.089844 133.714844 C 209.089844 133.714844 210.675781 136.664062 209.277344 138.296875"/><path fill="#f9aa78" fill-opacity="1" fill-rule="nonzero" d="M 222.503906 110.777344 C 221.597656 105.777344 216.503906 101.066406 209.191406 102.378906 C 201.878906 103.695312 198.742188 109.886719 199.640625 114.882812 C 199.6875 115.148438 202.414062 127.066406 204.394531 129.929688 C 206.378906 132.792969 212.175781 137.894531 215.671875 137.285156 C 219.488281 136.613281 222.851562 130.316406 223.8125 126.4375 C 224.765625 122.566406 222.503906 110.777344 222.503906 110.777344"/><path fill="#f9aa78" fill-opacity="1" fill-rule="nonzero" d="M 202.914062 122.960938 C 202.484375 121.859375 201.207031 120.992188 199.777344 121.585938 C 198.347656 122.179688 198.59375 123.570312 199.023438 124.671875 C 199.046875 124.726562 200.335938 127.679688 200.878906 128.25 C 201.429688 128.820312 202.273438 129.941406 203.257812 129.402344 C 203.910156 129.046875 204.09375 127.742188 204.097656 126.820312 C 204.101562 125.902344 202.914062 122.960938 202.914062 122.960938"/><path fill="#f9aa78" fill-opacity="1" fill-rule="nonzero" d="M 222.910156 119.367188 C 222.933594 118.183594 223.828125 116.925781 225.375 116.984375 C 226.921875 117.042969 227.175781 118.433594 227.15625 119.609375 C 227.15625 119.671875 226.980469 122.890625 226.664062 123.613281 C 226.351562 124.339844 225.949219 125.683594 224.835938 125.523438 C 224.101562 125.414062 223.472656 124.257812 223.148438 123.394531 C 222.828125 122.535156 222.910156 119.367188 222.910156 119.367188"/><path fill="#261617" fill-opacity="1" fill-rule="nonzero" d="M 224.132812 107.398438 C 223.085938 104.78125 219.929688 101.472656 217.539062 102.355469 C 215.132812 100.027344 212.046875 99.917969 208.851562 100.492188 C 201.203125 101.863281 197.855469 108.191406 197.6875 112.820312 C 197.5625 116.386719 198.324219 119.839844 198.933594 122.257812 C 199.347656 121.707031 200.011719 121.484375 200.652344 121.367188 C 201.027344 122.804688 201.820312 127.007812 204.121094 128.738281 C 202.960938 126.25 204.25 124.214844 203.644531 121.792969 C 204.101562 121.480469 206.570312 121.398438 208.730469 119.671875 C 211.285156 117.636719 213.046875 114.695312 213.289062 114.546875 C 212.890625 116.785156 209.242188 120.144531 209.539062 120.007812 C 212.148438 118.824219 215.800781 114.757812 216.558594 111.316406 C 218.46875 116.753906 222.035156 117.375 222.035156 117.375 C 222.035156 117.375 223.890625 120.570312 223.882812 122.988281 C 224.78125 121.835938 224.015625 118.683594 224.453125 117.371094 C 224.5625 117.03125 225.375 116.984375 225.929688 117.078125 C 225.84375 114.988281 225.464844 110.71875 224.132812 107.398438"/><path fill="#b42026" fill-opacity="1" fill-rule="nonzero" d="M 222.675781 120.648438 C 222.550781 121.980469 221.777344 122.660156 220.722656 122.917969 C 218.324219 123.507812 216.597656 123.269531 215.671875 122.457031 C 214.71875 121.632812 215.058594 120.078125 215.058594 120.078125 C 215.058594 120.078125 215.21875 119.339844 216.007812 119.027344 C 217.511719 118.433594 220.054688 118.109375 221.003906 118.128906 C 222.050781 118.15625 222.269531 118.484375 222.464844 118.933594 C 222.625 119.3125 222.753906 119.875 222.675781 120.648438 Z M 210.464844 123.375 C 209.890625 124.4375 208.382812 125.25 205.972656 125.527344 C 204.910156 125.648438 203.972656 125.292969 203.398438 124.109375 C 203.058594 123.421875 202.988281 122.863281 203.007812 122.453125 C 203.03125 121.976562 203.117188 121.597656 204.066406 121.214844 C 204.941406 120.867188 207.390625 120.296875 208.980469 120.332031 C 209.816406 120.351562 210.210938 120.976562 210.210938 120.976562 C 210.210938 120.976562 211.058594 122.285156 210.464844 123.375 Z M 223.65625 118.308594 C 223.398438 117.714844 223.105469 117.273438 221.710938 117.238281 C 220.433594 117.207031 217.042969 117.640625 215.03125 118.4375 C 214.65625 118.589844 214.386719 118.8125 214.195312 119.039062 C 213.9375 118.890625 213.300781 118.617188 212.425781 118.777344 C 211.433594 118.953125 210.929688 119.535156 210.796875 119.707031 C 210.53125 119.542969 210.179688 119.402344 209.730469 119.390625 C 207.5625 119.339844 204.238281 120.121094 203.050781 120.59375 C 201.753906 121.109375 201.632812 121.625 201.601562 122.269531 C 201.574219 122.828125 201.675781 123.59375 202.128906 124.527344 C 202.914062 126.132812 204.195312 126.621094 205.636719 126.453125 C 208.910156 126.074219 210.960938 124.972656 211.742188 123.53125 C 212.285156 122.535156 211.945312 121.40625 211.664062 120.773438 C 211.863281 120.535156 212.242188 120.179688 212.835938 120.074219 C 213.191406 120.007812 213.488281 120.058594 213.722656 120.144531 C 213.644531 120.757812 213.613281 122.171875 214.582031 123.019531 C 215.820312 124.101562 218.128906 124.417969 221.332031 123.632812 C 222.738281 123.285156 223.765625 122.378906 223.941406 120.601562 C 224.046875 119.570312 223.871094 118.816406 223.65625 118.308594"/><path fill="#b42026" fill-opacity="1" fill-rule="nonzero" d="M 217.730469 129.34375 C 217.730469 129.34375 217.261719 131.996094 214.875 132.4375 C 212.660156 132.839844 211.101562 130.5625 211.101562 130.5625 C 211.101562 130.5625 211.804688 130.402344 212.542969 130.015625 C 213.171875 129.6875 213.792969 129.550781 214.394531 129.761719 C 215.1875 129.179688 215.890625 129.320312 216.574219 129.378906 C 217.113281 129.425781 217.730469 129.34375 217.730469 129.34375"/><path fill="#fff" fill-opacity="1" fill-rule="nonzero" d="M 217.652344 129.410156 C 217.652344 129.410156 217.09375 131.082031 214.703125 131.511719 C 212.488281 131.910156 211.234375 130.566406 211.234375 130.566406 C 211.234375 130.566406 213.175781 130.347656 214.5 130.402344 C 216 129.832031 217.652344 129.410156 217.652344 129.410156"/><path fill="#d5835c" fill-opacity="1" fill-rule="nonzero" d="M 215.640625 126.109375 L 214.082031 128.101562 L 212.761719 120.75 Z M 215.640625 126.109375"/><path fill="#261617" fill-opacity="1" fill-rule="nonzero" d="M 219.65625 120.175781 C 219.773438 120.84375 219.335938 121.480469 218.667969 121.601562 C 218 121.71875 217.363281 121.277344 217.242188 120.613281 C 217.121094 119.945312 217.566406 119.308594 218.234375 119.1875 C 218.898438 119.070312 219.539062 119.511719 219.65625 120.175781"/><path fill="#261617" fill-opacity="1" fill-rule="nonzero" d="M 218.789062 119.425781 C 219.667969 119.265625 220.496094 119.277344 221.132812 119.421875 C 220.675781 118.941406 219.726562 118.714844 218.695312 118.902344 C 217.660156 119.085938 216.847656 119.632812 216.589844 120.242188 C 217.136719 119.882812 217.902344 119.582031 218.789062 119.425781"/><path fill="#261617" fill-opacity="1" fill-rule="nonzero" d="M 206.703125 122.503906 C 206.828125 123.171875 207.464844 123.613281 208.128906 123.496094 C 208.792969 123.375 209.238281 122.738281 209.121094 122.070312 C 208.996094 121.40625 208.359375 120.964844 207.695312 121.082031 C 207.03125 121.203125 206.585938 121.835938 206.703125 122.503906"/><path fill="#261617" fill-opacity="1" fill-rule="nonzero" d="M 207.257812 121.5 C 206.375 121.65625 205.605469 121.957031 205.058594 122.3125 C 205.316406 121.707031 206.125 121.164062 207.164062 120.972656 C 208.199219 120.789062 209.148438 121.015625 209.605469 121.492188 C 208.964844 121.351562 208.140625 121.335938 207.257812 121.5"/><path fill="#261617" fill-opacity="1" fill-rule="nonzero" d="M 218.757812 115.109375 C 217.667969 115.007812 216.417969 115.328125 216.328125 115.457031 C 216.234375 115.582031 216.09375 116.367188 216.3125 116.421875 C 216.527344 116.476562 217.035156 115.917969 218.617188 115.917969 C 219.664062 115.921875 221.0625 116.578125 221.507812 116.902344 C 221.0625 116.132812 220.148438 115.246094 218.757812 115.109375"/><path fill="#261617" fill-opacity="1" fill-rule="nonzero" d="M 205.132812 117.5625 C 206.121094 117.078125 207.40625 116.945312 207.535156 117.035156 C 207.667969 117.128906 208.074219 117.808594 207.886719 117.9375 C 207.703125 118.0625 207.03125 117.71875 205.550781 118.269531 C 204.566406 118.640625 203.492188 119.738281 203.179688 120.199219 C 203.335938 119.324219 203.878906 118.171875 205.132812 117.5625"/></svg>