<svg xmlns="http://www.w3.org/2000/svg" xmlns:xlink="http://www.w3.org/1999/xlink" width="550" zoomAndPan="magnify" viewBox="0 0 412.5 299.999988" height="400" preserveAspectRatio="xMidYMid meet" version="1.0"><defs><g/><clipPath id="ea667b28a0"><path d="M 0 0.179688 L 412 0.179688 L 412 299.816406 L 0 299.816406 Z M 0 0.179688 " clip-rule="nonzero"/></clipPath><clipPath id="32be81f034"><path d="M 198 23.859375 L 300 23.859375 L 300 55 L 198 55 Z M 198 23.859375 " clip-rule="nonzero"/></clipPath><clipPath id="15b3174150"><path d="M 167 27 L 301.394531 27 L 301.394531 188 L 167 188 Z M 167 27 " clip-rule="nonzero"/></clipPath><clipPath id="640d65493f"><path d="M 110.894531 41 L 212 41 L 212 181 L 110.894531 181 Z M 110.894531 41 " clip-rule="nonzero"/></clipPath><clipPath id="0524c10783"><path d="M 135 73 L 259 73 L 259 227.859375 L 135 227.859375 Z M 135 73 " clip-rule="nonzero"/></clipPath></defs><g clip-path="url(#ea667b28a0)"><path fill="#ffffff" d="M 0 0.179688 L 412.5 0.179688 L 412.5 307.679688 L 0 307.679688 Z M 0 0.179688 " fill-opacity="1" fill-rule="nonzero"/><path fill="#ffffff" d="M 0 0.179688 L 412.5 0.179688 L 412.5 300.179688 L 0 300.179688 Z M 0 0.179688 " fill-opacity="1" fill-rule="nonzero"/><path fill="#ffffff" d="M 0 0.179688 L 412.5 0.179688 L 412.5 300.179688 L 0 300.179688 Z M 0 0.179688 " fill-opacity="1" fill-rule="nonzero"/></g><g clip-path="url(#32be81f034)"><path fill="#d3d2d2" d="M 299.132812 54.078125 L 204.957031 27.148438 L 200.789062 41.804688 L 198.351562 41.804688 L 203.457031 23.859375 L 299.886719 51.429688 L 299.132812 54.078125 " fill-opacity="1" fill-rule="nonzero"/></g><g clip-path="url(#15b3174150)"><path fill="#ffffff" d="M 263.488281 187.96875 L 167.058594 160.398438 L 204.957031 27.148438 L 301.386719 54.722656 L 263.488281 187.96875 " fill-opacity="1" fill-rule="nonzero"/></g><path fill="#42a3ab" d="M 244.078125 58.648438 L 210.605469 49.078125 L 213.027344 40.5625 L 246.5 50.132812 L 244.078125 58.648438 " fill-opacity="1" fill-rule="nonzero"/><path fill="#d3d2d2" d="M 242.738281 61.785156 L 209.679688 52.332031 L 208.46875 56.589844 L 241.527344 66.042969 L 242.738281 61.785156 " fill-opacity="1" fill-rule="nonzero"/><path fill="#d3d2d2" d="M 240.195312 70.734375 L 207.136719 61.28125 L 205.925781 65.539062 L 238.980469 74.992188 L 240.195312 70.734375 " fill-opacity="1" fill-rule="nonzero"/><path fill="#d3d2d2" d="M 238.101562 78.085938 L 205.042969 68.632812 L 203.832031 72.894531 L 236.890625 82.347656 L 238.101562 78.085938 " fill-opacity="1" fill-rule="nonzero"/><path fill="#d3d2d2" d="M 235.511719 87.195312 L 202.453125 77.742188 L 201.242188 82 L 234.300781 91.453125 L 235.511719 87.195312 " fill-opacity="1" fill-rule="nonzero"/><path fill="#d3d2d2" d="M 264.675781 140.101562 L 190.730469 118.957031 L 191.941406 114.703125 L 265.886719 135.84375 L 264.675781 140.101562 " fill-opacity="1" fill-rule="nonzero"/><path fill="#d3d2d2" d="M 261.6875 150.609375 L 187.738281 129.46875 L 188.953125 125.210938 L 262.898438 146.351562 L 261.6875 150.609375 " fill-opacity="1" fill-rule="nonzero"/><path fill="#f3d28b" d="M 203.816406 154.722656 L 182.308594 148.570312 L 186.921875 132.34375 L 208.429688 138.496094 L 203.816406 154.722656 " fill-opacity="1" fill-rule="nonzero"/><path fill="#f3d28b" d="M 230.035156 162.214844 L 208.523438 156.066406 L 213.140625 139.839844 L 234.648438 145.992188 L 230.035156 162.214844 " fill-opacity="1" fill-rule="nonzero"/><path fill="#f3d28b" d="M 256.253906 169.710938 L 234.746094 163.5625 L 239.359375 147.335938 L 260.867188 153.484375 L 256.253906 169.710938 " fill-opacity="1" fill-rule="nonzero"/><path fill="#d3d2d2" d="M 272.796875 111.546875 L 245.816406 103.832031 L 247.027344 99.574219 L 274.007812 107.289062 L 272.796875 111.546875 " fill-opacity="1" fill-rule="nonzero"/><path fill="#d3d2d2" d="M 270.652344 119.089844 L 243.671875 111.378906 L 244.882812 107.117188 L 271.863281 114.832031 L 270.652344 119.089844 " fill-opacity="1" fill-rule="nonzero"/><path fill="#d3d2d2" d="M 268.507812 126.636719 L 241.523438 118.921875 L 242.734375 114.664062 L 269.71875 122.378906 L 268.507812 126.636719 " fill-opacity="1" fill-rule="nonzero"/><path fill="#65bed9" d="M 237.027344 117.636719 L 194.558594 105.492188 L 200.0625 86.144531 L 242.53125 98.289062 L 237.027344 117.636719 " fill-opacity="1" fill-rule="nonzero"/><path fill="#65bed9" d="M 275.1875 103.144531 L 243.710938 94.144531 L 255.496094 52.703125 L 286.972656 61.703125 L 275.1875 103.144531 " fill-opacity="1" fill-rule="nonzero"/><path fill="#29242c" d="M 275.136719 103.128906 L 276.773438 97.371094 C 275.464844 95.496094 267.332031 90.230469 267.332031 90.230469 L 256.648438 87.175781 C 256.648438 87.175781 248.246094 87.03125 245.476562 87.929688 L 243.710938 94.144531 L 275.136719 103.128906 " fill-opacity="1" fill-rule="nonzero"/><path fill="#ffffff" d="M 261.953125 99.355469 L 267.988281 90.671875 L 255.765625 87.175781 L 256.914062 97.917969 L 261.953125 99.355469 " fill-opacity="1" fill-rule="nonzero"/><path fill="#1b171b" d="M 261.410156 99.203125 L 262.324219 91.234375 L 260.511719 90.714844 L 257.09375 97.96875 L 261.410156 99.203125 " fill-opacity="1" fill-rule="nonzero"/><path fill="#d5835c" d="M 256.707031 86.980469 C 256.707031 86.980469 259.433594 90.40625 261.351562 90.957031 C 263.269531 91.503906 267.390625 90.035156 267.390625 90.035156 L 267.90625 86.503906 L 258.183594 83.722656 L 256.707031 86.980469 " fill-opacity="1" fill-rule="nonzero"/><path fill="#ffffff" d="M 256.503906 85.421875 L 255.765625 87.175781 C 255.765625 87.175781 259.335938 90.742188 261.253906 91.292969 C 263.171875 91.839844 267.988281 90.671875 267.988281 90.671875 L 268.183594 88.980469 L 261.464844 90.550781 L 256.503906 85.421875 " fill-opacity="1" fill-rule="nonzero"/><path fill="#f9aa78" d="M 277.441406 71.320312 C 278.625 67.160156 276.335938 61.601562 269.984375 59.78125 C 263.628906 57.964844 258.761719 61.484375 257.578125 65.644531 C 257.515625 65.863281 254.785156 77.347656 255.277344 80.296875 C 255.773438 83.246094 258.847656 88.042969 261.878906 88.921875 C 265.191406 89.886719 269.898438 87.707031 272.144531 85.117188 C 274.386719 82.527344 277.441406 71.320312 277.441406 71.320312 " fill-opacity="1" fill-rule="nonzero"/><path fill="#f9aa78" d="M 257.53125 72.035156 C 257.617188 71.03125 256.964844 69.890625 255.652344 69.808594 C 254.335938 69.726562 254.003906 70.882812 253.921875 71.886719 C 253.917969 71.9375 253.796875 74.679688 254 75.320312 C 254.203125 75.964844 254.429688 77.136719 255.382812 77.09375 C 256.015625 77.0625 256.640625 76.136719 256.992188 75.433594 C 257.339844 74.730469 257.53125 72.035156 257.53125 72.035156 " fill-opacity="1" fill-rule="nonzero"/><path fill="#f9aa78" d="M 274.519531 76.894531 C 274.976562 76 276.128906 75.371094 277.289062 75.996094 C 278.449219 76.621094 278.230469 77.847656 277.777344 78.742188 C 277.75 78.789062 276.417969 80.976562 275.902344 81.621094 C 275.480469 82.152344 274.484375 83.015625 273.691406 82.386719 C 273.195312 81.992188 273.117188 80.847656 273.191406 80.066406 C 273.265625 79.285156 274.519531 76.894531 274.519531 76.894531 " fill-opacity="1" fill-rule="nonzero"/><path fill="#261617" d="M 279.105469 70.148438 C 279.273438 67.109375 276.632812 60.558594 270.28125 58.742188 C 263.925781 56.925781 259.15625 59.976562 257.300781 63.457031 C 255.871094 66.140625 255.503906 67.789062 255.066406 69.867188 C 255.730469 69.777344 256.148438 69.757812 256.589844 70.097656 C 256.335938 71.335938 256.050781 72.792969 255.820312 74.132812 C 256.007812 74.730469 256.410156 74.683594 256.410156 74.683594 L 259.707031 65.972656 C 259.707031 65.972656 271.027344 76.515625 275.902344 70.460938 C 276.609375 69.582031 274.128906 79.4375 274.128906 79.4375 C 274.128906 79.4375 274.496094 80.03125 274.914062 79.316406 C 275.351562 78.117188 275.585938 77.144531 276.023438 76.046875 C 276.277344 75.414062 276.992188 75.859375 277.582031 76.191406 C 278.300781 74.558594 278.941406 73.191406 279.105469 70.148438 " fill-opacity="1" fill-rule="nonzero"/><path fill="#1b171b" d="M 259.835938 90.355469 C 259.566406 91.292969 260.046875 92.253906 260.910156 92.5 C 261.773438 92.746094 262.6875 92.183594 262.953125 91.246094 C 263.222656 90.304688 262.585938 90.523438 261.726562 90.277344 C 260.863281 90.035156 260.101562 89.414062 259.835938 90.355469 " fill-opacity="1" fill-rule="nonzero"/><path fill="#cd8158" d="M 264.191406 81.070312 L 265.933594 74.949219 L 266.035156 80.109375 L 264.191406 81.070312 " fill-opacity="1" fill-rule="nonzero"/><path fill="#cd8158" d="M 266.476562 84.742188 C 266.476562 84.742188 266.054688 84.714844 265.5 84.695312 C 264.746094 84.675781 263.960938 84.277344 263.261719 84.074219 C 262.644531 83.898438 261.777344 83.851562 261.210938 83.515625 C 260.679688 83.203125 260.21875 82.960938 260.179688 82.941406 C 260.222656 82.964844 260.757812 83.238281 261.316406 83.398438 C 261.90625 83.566406 262.445312 83.410156 263.375 83.675781 C 264.300781 83.9375 264.726562 84.355469 265.300781 84.515625 C 265.871094 84.679688 266.476562 84.742188 266.476562 84.742188 M 260.179688 82.941406 C 260.175781 82.941406 260.175781 82.941406 260.175781 82.941406 C 260.175781 82.941406 260.175781 82.941406 260.179688 82.941406 " fill-opacity="1" fill-rule="nonzero"/><path fill="#261617" d="M 270.660156 78.542969 C 270.433594 79.074219 269.820312 79.316406 269.289062 79.089844 C 268.761719 78.859375 268.519531 78.246094 268.746094 77.714844 C 268.972656 77.1875 269.585938 76.941406 270.113281 77.171875 C 270.640625 77.398438 270.886719 78.011719 270.660156 78.542969 " fill-opacity="1" fill-rule="nonzero"/><path fill="#261617" d="M 270.398438 77.597656 C 271.097656 77.898438 271.675781 78.300781 272.058594 78.699219 C 271.960938 78.144531 271.394531 77.539062 270.574219 77.183594 C 269.753906 76.828125 268.925781 76.832031 268.453125 77.144531 C 269.007812 77.148438 269.695312 77.296875 270.398438 77.597656 " fill-opacity="1" fill-rule="nonzero"/><path fill="#261617" d="M 259.933594 75.507812 C 259.878906 76.082031 260.300781 76.59375 260.871094 76.648438 C 261.445312 76.703125 261.953125 76.28125 262.007812 75.710938 C 262.0625 75.136719 261.644531 74.625 261.070312 74.570312 C 260.5 74.515625 259.988281 74.933594 259.933594 75.507812 " fill-opacity="1" fill-rule="nonzero"/><path fill="#261617" d="M 260.617188 74.808594 C 259.859375 74.734375 259.160156 74.804688 258.628906 74.96875 C 258.980469 74.535156 259.769531 74.273438 260.660156 74.359375 C 261.550781 74.441406 262.273438 74.847656 262.539062 75.347656 C 262.046875 75.082031 261.375 74.878906 260.617188 74.808594 " fill-opacity="1" fill-rule="nonzero"/><path fill="#261617" d="M 272.34375 74.292969 C 271.550781 73.800781 270.476562 73.578125 270.359375 73.644531 C 270.238281 73.707031 269.839844 74.25 269.988281 74.375 C 270.132812 74.5 270.730469 74.265625 271.933594 74.859375 C 272.734375 75.253906 273.550781 76.277344 273.773438 76.691406 C 273.722656 75.941406 273.351562 74.917969 272.34375 74.292969 " fill-opacity="1" fill-rule="nonzero"/><path fill="#261617" d="M 261.03125 71.054688 C 261.964844 71.058594 262.992188 71.4375 263.058594 71.558594 C 263.128906 71.675781 263.179688 72.351562 262.988281 72.375 C 262.800781 72.402344 262.417969 71.890625 261.085938 71.753906 C 260.195312 71.667969 258.960938 72.109375 258.550781 72.339844 C 258.992188 71.726562 259.84375 71.054688 261.03125 71.054688 " fill-opacity="1" fill-rule="nonzero"/><path fill="#d3d2d2" d="M 149.78125 184.347656 L 113.558594 184.347656 L 113.558594 180.367188 L 149.070312 180.367188 L 149.78125 184.347656 " fill-opacity="1" fill-rule="nonzero"/><path fill="#d3d2d2" d="M 211.179688 76.386719 L 211.179688 74.996094 L 213.832031 75.753906 L 213.832031 75.910156 L 211.179688 76.386719 M 213.832031 71.144531 L 211.179688 70.390625 L 211.179688 67.042969 L 213.832031 67.800781 L 213.832031 71.144531 M 213.832031 63.195312 L 211.179688 62.4375 L 211.179688 57.367188 L 213.832031 58.125 L 213.832031 63.195312 M 213.832031 53.519531 L 211.179688 52.761719 L 211.179688 49.242188 L 213.832031 50 L 213.832031 53.519531 M 211.179688 47.0625 L 211.179688 45.789062 L 211.542969 45.789062 L 211.179688 47.0625 " fill-opacity="1" fill-rule="nonzero"/><path fill="#37858d" d="M 213.832031 50 L 211.179688 49.242188 L 211.179688 47.0625 L 211.542969 45.789062 L 213.832031 45.789062 L 213.832031 50 " fill-opacity="1" fill-rule="nonzero"/><path fill="#b0aeaf" d="M 213.832031 58.125 L 211.179688 57.367188 L 211.179688 52.761719 L 213.832031 53.519531 L 213.832031 58.125 " fill-opacity="1" fill-rule="nonzero"/><path fill="#b0aeaf" d="M 213.832031 67.800781 L 211.179688 67.042969 L 211.179688 62.4375 L 213.832031 63.195312 L 213.832031 67.800781 " fill-opacity="1" fill-rule="nonzero"/><path fill="#b0aeaf" d="M 213.832031 75.753906 L 211.179688 74.996094 L 211.179688 70.390625 L 213.832031 71.144531 L 213.832031 75.753906 " fill-opacity="1" fill-rule="nonzero"/><g clip-path="url(#640d65493f)"><path fill="#ffffff" d="M 110.90625 180.367188 L 211.179688 180.367188 L 211.179688 41.804688 L 110.90625 41.804688 Z M 110.90625 180.367188 " fill-opacity="1" fill-rule="nonzero"/></g><path fill="#42a3ab" d="M 157.140625 61.339844 L 122.335938 61.339844 L 122.335938 52.488281 L 157.140625 52.488281 L 157.140625 61.339844 " fill-opacity="1" fill-rule="nonzero"/><path fill="#d3d2d2" d="M 156.710938 64.726562 L 122.335938 64.726562 L 122.335938 69.152344 L 156.710938 69.152344 L 156.710938 64.726562 " fill-opacity="1" fill-rule="nonzero"/><path fill="#d3d2d2" d="M 156.710938 74.03125 L 122.335938 74.03125 L 122.335938 78.457031 L 156.710938 78.457031 L 156.710938 74.03125 " fill-opacity="1" fill-rule="nonzero"/><path fill="#d3d2d2" d="M 122.335938 86.101562 L 156.710938 86.101562 L 156.710938 81.675781 L 122.335938 81.675781 Z M 122.335938 86.101562 " fill-opacity="1" fill-rule="nonzero"/><path fill="#d3d2d2" d="M 122.335938 95.574219 L 156.710938 95.574219 L 156.710938 91.148438 L 122.335938 91.148438 Z M 122.335938 95.574219 " fill-opacity="1" fill-rule="nonzero"/><path fill="#d3d2d2" d="M 122.335938 134.007812 L 199.230469 134.007812 L 199.230469 129.578125 L 122.335938 129.578125 Z M 122.335938 134.007812 " fill-opacity="1" fill-rule="nonzero"/><path fill="#d3d2d2" d="M 122.335938 144.933594 L 199.230469 144.933594 L 199.230469 140.503906 L 122.335938 140.503906 Z M 122.335938 144.933594 " fill-opacity="1" fill-rule="nonzero"/><path fill="#f3d28b" d="M 122.335938 164.800781 L 144.703125 164.800781 L 144.703125 147.925781 L 122.335938 147.925781 Z M 122.335938 164.800781 " fill-opacity="1" fill-rule="nonzero"/><path fill="#f3d28b" d="M 149.597656 164.800781 L 171.964844 164.800781 L 171.964844 147.925781 L 149.597656 147.925781 Z M 149.597656 164.800781 " fill-opacity="1" fill-rule="nonzero"/><path fill="#f3d28b" d="M 176.863281 164.800781 L 199.230469 164.800781 L 199.230469 147.925781 L 176.863281 147.925781 Z M 176.863281 164.800781 " fill-opacity="1" fill-rule="nonzero"/><path fill="#d3d2d2" d="M 171.171875 104.316406 L 199.230469 104.316406 L 199.230469 99.886719 L 171.171875 99.886719 Z M 171.171875 104.316406 " fill-opacity="1" fill-rule="nonzero"/><path fill="#d3d2d2" d="M 171.171875 112.160156 L 199.230469 112.160156 L 199.230469 107.734375 L 171.171875 107.734375 Z M 171.171875 112.160156 " fill-opacity="1" fill-rule="nonzero"/><path fill="#d3d2d2" d="M 171.171875 120.007812 L 199.230469 120.007812 L 199.230469 115.578125 L 171.171875 115.578125 Z M 171.171875 120.007812 " fill-opacity="1" fill-rule="nonzero"/><path fill="#65bed9" d="M 122.335938 120.007812 L 166.5 120.007812 L 166.5 99.886719 L 122.335938 99.886719 Z M 122.335938 120.007812 " fill-opacity="1" fill-rule="nonzero"/><path fill="#f68722" d="M 166.5 95.574219 L 199.230469 95.574219 L 199.230469 52.484375 L 166.5 52.484375 Z M 166.5 95.574219 " fill-opacity="1" fill-rule="nonzero"/><path fill="#23837f" d="M 167.246094 95.574219 L 198.484375 95.574219 C 198.484375 95.574219 197.867188 85.261719 196.84375 84.105469 C 195.816406 82.957031 187.539062 80.425781 187.539062 80.425781 L 178.304688 80.425781 C 178.304688 80.425781 169.582031 82.761719 169.019531 84.105469 C 168.460938 85.453125 167.246094 95.574219 167.246094 95.574219 " fill-opacity="1" fill-rule="nonzero"/><path fill="#7d412b" d="M 178.304688 80.261719 C 178.304688 80.261719 181.261719 82.375 182.921875 82.375 C 184.578125 82.375 187.539062 80.261719 187.539062 80.261719 L 187.144531 77.320312 L 178.746094 77.320312 L 178.304688 80.261719 " fill-opacity="1" fill-rule="nonzero"/><path fill="#175452" d="M 178.113281 78.8125 L 177.597656 80.632812 L 180.554688 84.136719 L 182.921875 82.375 L 185.832031 84.445312 L 188.164062 80.632812 L 187.875 78.8125 L 182.921875 82.023438 L 178.113281 78.8125 " fill-opacity="1" fill-rule="nonzero"/><path fill="#9e5439" d="M 191.3125 63.015625 C 191.3125 59.417969 188.226562 55.496094 182.734375 55.496094 C 177.246094 55.496094 174.15625 59.417969 174.15625 63.015625 C 174.15625 63.203125 174.582031 73 175.648438 75.242188 C 176.710938 77.488281 180.261719 80.621094 182.878906 80.632812 C 185.746094 80.644531 189.015625 77.824219 190.21875 75.242188 C 191.421875 72.664062 191.3125 63.015625 191.3125 63.015625 " fill-opacity="1" fill-rule="nonzero"/><path fill="#261617" d="M 175 72.636719 C 175.179688 73.773438 175.398438 74.71875 175.648438 75.242188 C 176.710938 77.488281 180.261719 80.621094 182.878906 80.632812 C 185.746094 80.644531 189.015625 77.824219 190.21875 75.242188 C 190.488281 74.667969 190.691406 73.734375 190.84375 72.636719 C 190.84375 72.636719 190.039062 74.707031 189.386719 75.300781 C 188.738281 75.894531 186.949219 77.277344 185.945312 77.832031 C 184.917969 78.402344 181.703125 78.632812 179.75 77.714844 C 179.125 77.421875 177.117188 76.097656 176.640625 75.320312 C 176.164062 74.542969 175 72.636719 175 72.636719 " fill-opacity="1" fill-rule="nonzero"/><path fill="#9e5439" d="M 175.574219 68.132812 C 175.410156 67.308594 174.628906 66.546875 173.5625 66.78125 C 172.492188 67.015625 172.488281 68.015625 172.652344 68.835938 C 172.660156 68.875 173.1875 71.097656 173.496094 71.5625 C 173.804688 72.03125 174.253906 72.914062 175.003906 72.664062 C 175.5 72.496094 175.792969 71.609375 175.910156 70.96875 C 176.027344 70.328125 175.574219 68.132812 175.574219 68.132812 " fill-opacity="1" fill-rule="nonzero"/><path fill="#9e5439" d="M 190.25 68.132812 C 190.410156 67.308594 191.191406 66.546875 192.257812 66.78125 C 193.324219 67.015625 193.429688 68.042969 193.269531 68.863281 C 193.261719 68.90625 192.691406 70.960938 192.425781 71.59375 C 192.207031 72.109375 191.609375 73.027344 190.835938 72.707031 C 190.347656 72.507812 190.027344 71.609375 189.910156 70.96875 C 189.792969 70.328125 190.25 68.132812 190.25 68.132812 " fill-opacity="1" fill-rule="nonzero"/><path fill="#261617" d="M 188.152344 76.3125 C 188.613281 76.238281 188.390625 76.65625 187.949219 77.074219 C 187.410156 77.582031 186.539062 78.085938 186.160156 77.707031 C 186.152344 76.429688 185.207031 74.851562 184.589844 74.535156 C 183.875 74.15625 181.550781 74.054688 180.746094 74.667969 C 179.925781 75.292969 179.539062 76.769531 179.597656 77.890625 C 179.824219 78.578125 177.050781 76.632812 178.050781 76.632812 C 178.757812 76.632812 179.679688 74.511719 180.359375 73.886719 C 181.28125 73.042969 184.730469 72.832031 185.449219 74.054688 C 185.945312 74.898438 187.136719 76.476562 188.152344 76.3125 " fill-opacity="1" fill-rule="nonzero"/><path fill="#ae684b" d="M 175.425781 64.167969 C 175.402344 64.167969 175.371094 64.15625 175.34375 64.136719 C 174.882812 63.769531 174.71875 60.816406 176.414062 58.675781 C 177.78125 56.949219 179.9375 56.285156 180.960938 56.285156 C 181.203125 56.285156 181.382812 56.320312 181.46875 56.390625 C 181.929688 56.757812 179.351562 57.53125 177.660156 59.667969 C 176.074219 61.675781 175.828125 64.167969 175.425781 64.167969 " fill-opacity="1" fill-rule="nonzero"/><path fill="#84402b" d="M 182.644531 72.605469 L 182.644531 67.316406 L 183.976562 71.414062 L 182.644531 72.605469 " fill-opacity="1" fill-rule="nonzero"/><path fill="#84402b" d="M 181.789062 76.019531 C 181.640625 76.019531 181.492188 76.003906 181.363281 75.960938 C 180.96875 75.839844 180.628906 75.753906 180.582031 75.742188 C 180.632812 75.753906 181.023438 75.84375 181.414062 75.84375 C 181.832031 75.84375 182.160156 75.59375 182.820312 75.59375 C 183.476562 75.59375 183.835938 75.828125 184.246094 75.828125 C 184.652344 75.828125 185.0625 75.738281 185.0625 75.738281 C 185.0625 75.738281 184.777344 75.8125 184.410156 75.925781 C 184.234375 75.980469 184.042969 76 183.847656 76 C 183.5 76 183.136719 75.941406 182.820312 75.941406 C 182.511719 75.941406 182.136719 76.019531 181.789062 76.019531 M 180.582031 75.742188 C 180.574219 75.738281 180.574219 75.738281 180.574219 75.738281 C 180.574219 75.738281 180.574219 75.738281 180.582031 75.742188 " fill-opacity="1" fill-rule="nonzero"/><path fill="#261617" d="M 187.496094 67.847656 C 187.433594 68.320312 187 68.65625 186.527344 68.59375 C 186.050781 68.53125 185.714844 68.097656 185.78125 67.621094 C 185.839844 67.148438 186.273438 66.8125 186.75 66.875 C 187.222656 66.9375 187.558594 67.371094 187.496094 67.847656 " fill-opacity="1" fill-rule="nonzero"/><path fill="#261617" d="M 187.070312 67.152344 C 187.703125 67.230469 188.253906 67.417969 188.652344 67.652344 C 188.449219 67.230469 187.855469 66.875 187.121094 66.777344 C 186.382812 66.683594 185.722656 66.875 185.417969 67.230469 C 185.863281 67.109375 186.441406 67.070312 187.070312 67.152344 " fill-opacity="1" fill-rule="nonzero"/><path fill="#261617" d="M 178.238281 67.871094 C 178.324219 68.34375 178.777344 68.65625 179.246094 68.566406 C 179.71875 68.480469 180.027344 68.03125 179.941406 67.558594 C 179.855469 67.085938 179.402344 66.773438 178.933594 66.863281 C 178.464844 66.949219 178.152344 67.402344 178.238281 67.871094 " fill-opacity="1" fill-rule="nonzero"/><path fill="#261617" d="M 178.625 67.15625 C 178.003906 67.273438 177.460938 67.488281 177.070312 67.742188 C 177.257812 67.308594 177.828125 66.921875 178.558594 66.785156 C 179.289062 66.652344 179.957031 66.808594 180.28125 67.148438 C 179.828125 67.046875 179.246094 67.039062 178.625 67.15625 " fill-opacity="1" fill-rule="nonzero"/><path fill="#261617" d="M 187.878906 64.0625 C 187.128906 63.851562 186.226562 63.921875 186.144531 64.003906 C 186.0625 64.078125 185.867188 64.605469 186.011719 64.671875 C 186.160156 64.738281 186.578125 64.414062 187.675781 64.609375 C 188.40625 64.742188 189.296875 65.378906 189.566406 65.65625 C 189.351562 65.066406 188.828125 64.332031 187.878906 64.0625 " fill-opacity="1" fill-rule="nonzero"/><path fill="#261617" d="M 178.101562 64.0625 C 178.847656 63.851562 179.753906 63.921875 179.835938 64.003906 C 179.917969 64.078125 180.113281 64.605469 179.96875 64.671875 C 179.824219 64.738281 179.398438 64.414062 178.304688 64.609375 C 177.574219 64.742188 176.683594 65.378906 176.414062 65.65625 C 176.628906 65.066406 177.152344 64.332031 178.101562 64.0625 " fill-opacity="1" fill-rule="nonzero"/><path fill="#d3d2d2" d="M 157.40625 226.863281 L 149.78125 184.347656 L 213.832031 184.347656 L 213.832031 173.769531 L 251.707031 184.601562 L 256.097656 209.070312 L 157.40625 226.863281 " fill-opacity="1" fill-rule="nonzero"/><path fill="#d3d2d2" d="M 251.707031 184.601562 L 213.832031 173.769531 L 213.832031 157.582031 L 230.035156 162.214844 L 234.648438 145.992188 L 213.832031 140.039062 L 213.832031 136.925781 L 244.746094 145.765625 L 245.332031 149.042969 L 239.359375 147.335938 L 234.746094 163.5625 L 248.648438 167.539062 L 251.707031 184.601562 M 243.871094 140.910156 L 213.832031 132.324219 L 213.832031 125.5625 L 242.597656 133.789062 L 243.871094 140.910156 M 241.726562 128.933594 L 213.832031 120.960938 L 213.832031 111.003906 L 237.027344 117.636719 L 238.667969 111.875 L 241.726562 128.933594 M 235.890625 96.390625 L 213.832031 90.082031 L 213.832031 85.597656 L 234.300781 91.453125 L 234.730469 89.933594 L 235.890625 96.390625 M 234.171875 86.8125 L 213.832031 80.996094 L 213.832031 75.910156 L 214.167969 75.847656 L 233.183594 81.285156 L 234.171875 86.8125 M 232.308594 76.429688 L 224.046875 74.066406 L 231.226562 72.773438 L 231.679688 72.902344 L 232.308594 76.429688 " fill-opacity="1" fill-rule="nonzero"/><path fill="#b0aeaf" d="M 231.679688 72.902344 L 231.226562 72.773438 L 231.640625 72.699219 L 231.679688 72.902344 " fill-opacity="1" fill-rule="nonzero"/><path fill="#b0aeaf" d="M 233.183594 81.285156 L 214.167969 75.847656 L 224.046875 74.066406 L 232.308594 76.429688 L 233.183594 81.285156 " fill-opacity="1" fill-rule="nonzero"/><path fill="#b0aeaf" d="M 234.300781 91.453125 L 213.832031 85.597656 L 213.832031 80.996094 L 234.171875 86.8125 L 234.730469 89.933594 L 234.300781 91.453125 " fill-opacity="1" fill-rule="nonzero"/><path fill="#b0aeaf" d="M 242.597656 133.789062 L 213.832031 125.5625 L 213.832031 120.960938 L 241.726562 128.933594 L 242.597656 133.789062 " fill-opacity="1" fill-rule="nonzero"/><path fill="#b0aeaf" d="M 244.746094 145.765625 L 213.832031 136.925781 L 213.832031 132.324219 L 243.871094 140.910156 L 244.746094 145.765625 " fill-opacity="1" fill-rule="nonzero"/><path fill="#c8ad72" d="M 230.035156 162.214844 L 213.832031 157.582031 L 213.832031 140.039062 L 234.648438 145.992188 L 230.035156 162.214844 " fill-opacity="1" fill-rule="nonzero"/><path fill="#c8ad72" d="M 248.648438 167.539062 L 234.746094 163.5625 L 239.359375 147.335938 L 245.332031 149.042969 L 248.648438 167.539062 " fill-opacity="1" fill-rule="nonzero"/><path fill="#549cb3" d="M 237.027344 117.636719 L 213.832031 111.003906 L 213.832031 90.082031 L 235.890625 96.390625 L 238.667969 111.875 L 237.027344 117.636719 " fill-opacity="1" fill-rule="nonzero"/><path fill="#b0aeaf" d="M 213.832031 184.347656 L 149.78125 184.347656 L 149.070312 180.367188 L 211.179688 180.367188 L 211.179688 173.015625 L 213.832031 173.769531 L 213.832031 184.347656 " fill-opacity="1" fill-rule="nonzero"/><path fill="#b0aeaf" d="M 213.832031 173.769531 L 211.179688 173.015625 L 211.179688 156.824219 L 213.832031 157.582031 L 213.832031 173.769531 M 211.179688 146.730469 L 211.179688 136.167969 L 213.832031 136.925781 L 213.832031 140.039062 L 213.140625 139.839844 L 211.179688 146.730469 M 213.832031 132.324219 L 211.179688 131.566406 L 211.179688 124.804688 L 213.832031 125.5625 L 213.832031 132.324219 M 213.832031 120.960938 L 211.179688 120.199219 L 211.179688 110.246094 L 213.832031 111.003906 L 213.832031 120.960938 M 213.832031 90.082031 L 211.179688 89.324219 L 211.179688 84.839844 L 213.832031 85.597656 L 213.832031 90.082031 M 213.832031 80.996094 L 211.179688 80.238281 L 211.179688 76.386719 L 213.832031 75.910156 L 213.832031 80.996094 " fill-opacity="1" fill-rule="nonzero"/><path fill="#939192" d="M 213.832031 85.597656 L 211.179688 84.839844 L 211.179688 80.238281 L 213.832031 80.996094 L 213.832031 85.597656 " fill-opacity="1" fill-rule="nonzero"/><path fill="#939192" d="M 213.832031 125.5625 L 211.179688 124.804688 L 211.179688 120.199219 L 213.832031 120.960938 L 213.832031 125.5625 " fill-opacity="1" fill-rule="nonzero"/><path fill="#939192" d="M 213.832031 136.925781 L 211.179688 136.167969 L 211.179688 131.566406 L 213.832031 132.324219 L 213.832031 136.925781 " fill-opacity="1" fill-rule="nonzero"/><path fill="#a68f5e" d="M 213.832031 157.582031 L 211.179688 156.824219 L 211.179688 146.730469 L 213.140625 139.839844 L 213.832031 140.039062 L 213.832031 157.582031 " fill-opacity="1" fill-rule="nonzero"/><path fill="#468195" d="M 213.832031 111.003906 L 211.179688 110.246094 L 211.179688 89.324219 L 213.832031 90.082031 L 213.832031 111.003906 " fill-opacity="1" fill-rule="nonzero"/><path fill="#d3d2d2" d="M 211.179688 180.367188 L 149.070312 180.367188 L 144.703125 156.015625 L 144.703125 147.925781 L 143.253906 147.925781 L 142.714844 144.933594 L 199.230469 144.933594 L 199.230469 140.503906 L 141.917969 140.503906 L 140.753906 134.007812 L 199.230469 134.007812 L 199.230469 129.578125 L 139.960938 129.578125 L 138.242188 120.007812 L 166.5 120.007812 L 166.5 99.886719 L 134.632812 99.886719 L 133.859375 95.574219 L 156.710938 95.574219 L 156.710938 91.148438 L 133.066406 91.148438 L 132.949219 90.488281 L 166.5 84.441406 L 166.5 95.574219 L 199.230469 95.574219 L 199.230469 78.542969 L 211.179688 76.386719 L 211.179688 180.367188 M 176.863281 147.925781 L 176.863281 164.800781 L 199.230469 164.800781 L 199.230469 147.925781 L 176.863281 147.925781 M 149.597656 147.925781 L 149.597656 164.800781 L 171.964844 164.800781 L 171.964844 147.925781 L 149.597656 147.925781 M 171.171875 115.578125 L 171.171875 120.007812 L 199.230469 120.007812 L 199.230469 115.578125 L 171.171875 115.578125 M 171.171875 107.734375 L 171.171875 112.160156 L 199.230469 112.160156 L 199.230469 107.734375 L 171.171875 107.734375 M 171.171875 99.886719 L 171.171875 104.316406 L 199.230469 104.316406 L 199.230469 99.886719 L 171.171875 99.886719 " fill-opacity="1" fill-rule="nonzero"/><path fill="#b0aeaf" d="M 156.710938 95.574219 L 133.859375 95.574219 L 133.066406 91.148438 L 156.710938 91.148438 L 156.710938 95.574219 " fill-opacity="1" fill-rule="nonzero"/><path fill="#b0aeaf" d="M 199.230469 134.007812 L 140.753906 134.007812 L 139.960938 129.578125 L 199.230469 129.578125 L 199.230469 134.007812 " fill-opacity="1" fill-rule="nonzero"/><path fill="#b0aeaf" d="M 199.230469 144.933594 L 142.714844 144.933594 L 141.917969 140.503906 L 199.230469 140.503906 L 199.230469 144.933594 " fill-opacity="1" fill-rule="nonzero"/><path fill="#c8ad72" d="M 144.703125 156.015625 L 143.253906 147.925781 L 144.703125 147.925781 L 144.703125 156.015625 " fill-opacity="1" fill-rule="nonzero"/><path fill="#c8ad72" d="M 149.597656 164.800781 L 171.964844 164.800781 L 171.964844 147.925781 L 149.597656 147.925781 Z M 149.597656 164.800781 " fill-opacity="1" fill-rule="nonzero"/><path fill="#c8ad72" d="M 176.863281 164.800781 L 199.230469 164.800781 L 199.230469 147.925781 L 176.863281 147.925781 Z M 176.863281 164.800781 " fill-opacity="1" fill-rule="nonzero"/><path fill="#b0aeaf" d="M 171.171875 104.316406 L 199.230469 104.316406 L 199.230469 99.886719 L 171.171875 99.886719 Z M 171.171875 104.316406 " fill-opacity="1" fill-rule="nonzero"/><path fill="#b0aeaf" d="M 171.171875 112.160156 L 199.230469 112.160156 L 199.230469 107.734375 L 171.171875 107.734375 Z M 171.171875 112.160156 " fill-opacity="1" fill-rule="nonzero"/><path fill="#b0aeaf" d="M 171.171875 120.007812 L 199.230469 120.007812 L 199.230469 115.578125 L 171.171875 115.578125 Z M 171.171875 120.007812 " fill-opacity="1" fill-rule="nonzero"/><path fill="#549cb3" d="M 166.5 120.007812 L 138.242188 120.007812 L 134.632812 99.886719 L 166.5 99.886719 L 166.5 120.007812 " fill-opacity="1" fill-rule="nonzero"/><path fill="#cb6e1c" d="M 199.230469 95.574219 L 198.484375 95.574219 C 198.484375 95.574219 197.867188 85.261719 196.84375 84.105469 C 195.988281 83.148438 190.109375 81.234375 188.160156 80.621094 L 188.148438 80.539062 L 199.230469 78.542969 L 199.230469 95.574219 M 167.246094 95.574219 L 166.5 95.574219 L 166.5 84.441406 L 169.101562 83.972656 C 169.066406 84.019531 169.039062 84.0625 169.019531 84.105469 C 168.460938 85.453125 167.246094 95.574219 167.246094 95.574219 " fill-opacity="1" fill-rule="nonzero"/><path fill="#1d6c69" d="M 198.484375 95.574219 L 167.246094 95.574219 C 167.246094 95.574219 168.460938 85.453125 169.019531 84.105469 C 169.039062 84.0625 169.066406 84.019531 169.101562 83.972656 L 178.921875 82.203125 L 180.554688 84.136719 L 182.921875 82.375 L 185.832031 84.445312 L 188.164062 80.632812 L 188.160156 80.621094 C 190.109375 81.234375 195.988281 83.148438 196.84375 84.105469 C 197.867188 85.261719 198.484375 95.574219 198.484375 95.574219 " fill-opacity="1" fill-rule="nonzero"/><path fill="#6a3624" d="M 182.921875 82.023438 L 182.28125 81.597656 L 184.082031 81.273438 L 182.921875 82.023438 " fill-opacity="1" fill-rule="nonzero"/><path fill="#134746" d="M 185.832031 84.445312 L 182.921875 82.375 L 180.554688 84.136719 L 178.921875 82.203125 L 182.28125 81.597656 L 182.921875 82.023438 L 184.082031 81.273438 L 188.148438 80.539062 L 188.160156 80.621094 L 188.164062 80.632812 L 185.832031 84.445312 " fill-opacity="1" fill-rule="nonzero"/><g clip-path="url(#0524c10783)"><path fill="#ffffff" d="M 258.65625 210.066406 L 159.964844 227.859375 L 135.507812 91.484375 L 234.199219 73.691406 L 258.65625 210.066406 " fill-opacity="1" fill-rule="nonzero"/></g><path fill="#42a3ab" d="M 184.460938 102.503906 L 150.203125 108.679688 L 148.644531 99.964844 L 182.898438 93.789062 L 184.460938 102.503906 " fill-opacity="1" fill-rule="nonzero"/><path fill="#d3d2d2" d="M 184.636719 105.914062 L 150.804688 112.011719 L 151.585938 116.371094 L 185.421875 110.273438 L 184.636719 105.914062 " fill-opacity="1" fill-rule="nonzero"/><path fill="#d3d2d2" d="M 186.277344 115.070312 L 152.449219 121.171875 L 153.226562 125.527344 L 187.0625 119.429688 L 186.277344 115.070312 " fill-opacity="1" fill-rule="nonzero"/><path fill="#d3d2d2" d="M 187.628906 122.597656 L 153.796875 128.695312 L 154.578125 133.054688 L 188.410156 126.957031 L 187.628906 122.597656 " fill-opacity="1" fill-rule="nonzero"/><path fill="#d3d2d2" d="M 189.300781 131.917969 L 155.46875 138.015625 L 156.25 142.375 L 190.085938 136.277344 L 189.300781 131.917969 " fill-opacity="1" fill-rule="nonzero"/><path fill="#d3d2d2" d="M 238.710938 166.558594 L 163.03125 180.199219 L 162.25 175.84375 L 237.933594 162.199219 L 238.710938 166.558594 " fill-opacity="1" fill-rule="nonzero"/><path fill="#d3d2d2" d="M 240.644531 177.3125 L 164.960938 190.957031 L 164.179688 186.597656 L 239.859375 172.957031 L 240.644531 177.3125 " fill-opacity="1" fill-rule="nonzero"/><path fill="#f3d28b" d="M 190.480469 206.539062 L 168.46875 210.507812 L 165.488281 193.898438 L 187.503906 189.929688 L 190.480469 206.539062 " fill-opacity="1" fill-rule="nonzero"/><path fill="#f3d28b" d="M 217.3125 201.703125 L 195.300781 205.671875 L 192.324219 189.0625 L 214.335938 185.09375 L 217.3125 201.703125 " fill-opacity="1" fill-rule="nonzero"/><path fill="#f3d28b" d="M 244.148438 196.867188 L 222.136719 200.835938 L 219.15625 184.226562 L 241.171875 180.257812 L 244.148438 196.867188 " fill-opacity="1" fill-rule="nonzero"/><path fill="#d3d2d2" d="M 233.46875 137.335938 L 205.859375 142.3125 L 205.078125 137.953125 L 232.691406 132.976562 L 233.46875 137.335938 " fill-opacity="1" fill-rule="nonzero"/><path fill="#d3d2d2" d="M 234.855469 145.058594 L 207.242188 150.035156 L 206.464844 145.675781 L 234.074219 140.699219 L 234.855469 145.058594 " fill-opacity="1" fill-rule="nonzero"/><path fill="#d3d2d2" d="M 236.242188 152.777344 L 208.628906 157.757812 L 207.847656 153.402344 L 235.460938 148.421875 L 236.242188 152.777344 " fill-opacity="1" fill-rule="nonzero"/><path fill="#65bed9" d="M 204.023438 158.585938 L 160.5625 166.417969 L 157.011719 146.621094 L 200.476562 138.785156 L 204.023438 158.585938 " fill-opacity="1" fill-rule="nonzero"/><path fill="#7486a1" d="M 231.929688 128.734375 L 199.714844 134.539062 L 192.109375 92.128906 L 224.324219 86.320312 L 231.929688 128.734375 " fill-opacity="1" fill-rule="nonzero"/><path fill="#261617" d="M 219.535156 97.113281 C 218.890625 93.507812 214.605469 90.21875 208.25 91.367188 C 201.890625 92.511719 199.015625 97.09375 199.664062 100.695312 C 199.695312 100.886719 201.492188 108.960938 203.382812 111.5 C 205.582031 114.441406 209.550781 116.085938 212.585938 115.550781 C 215.90625 114.964844 218.933594 112.503906 220.261719 108.457031 C 221.363281 105.085938 219.535156 97.113281 219.535156 97.113281 " fill-opacity="1" fill-rule="nonzero"/><path fill="#b42026" d="M 201.53125 134.070312 L 230.066406 128.925781 C 230.066406 128.925781 228.667969 119.578125 226.355469 117.722656 C 224.046875 115.867188 220.019531 117.230469 217.566406 115.609375 C 215.113281 113.984375 210.070312 114.898438 208.3125 117.277344 C 206.550781 119.65625 203.019531 120.070312 201.253906 122.25 C 199.484375 124.421875 201.53125 134.070312 201.53125 134.070312 " fill-opacity="1" fill-rule="nonzero"/><path fill="#d5835c" d="M 208.3125 117.277344 C 208.53125 118.136719 212.019531 120.894531 213.679688 120.59375 C 215.347656 120.296875 217.296875 116.519531 217.566406 115.609375 C 216.050781 114.570312 216.597656 112.453125 216.597656 112.453125 L 208.175781 113.972656 C 208.175781 113.972656 209.316406 116.101562 208.3125 117.277344 " fill-opacity="1" fill-rule="nonzero"/><path fill="#f9aa78" d="M 217.824219 97.421875 C 217.175781 93.816406 213.511719 90.417969 208.25 91.367188 C 202.984375 92.3125 200.730469 96.78125 201.375 100.386719 C 201.410156 100.574219 203.371094 109.175781 204.796875 111.242188 C 206.226562 113.308594 210.394531 116.988281 212.910156 116.546875 C 215.65625 116.0625 218.078125 111.519531 218.769531 108.722656 C 219.457031 105.929688 217.824219 97.421875 217.824219 97.421875 " fill-opacity="1" fill-rule="nonzero"/><path fill="#f9aa78" d="M 203.734375 106.214844 C 203.421875 105.417969 202.503906 104.792969 201.476562 105.222656 C 200.445312 105.652344 200.625 106.652344 200.933594 107.449219 C 200.949219 107.488281 201.875 109.617188 202.265625 110.03125 C 202.664062 110.441406 203.273438 111.25 203.980469 110.863281 C 204.445312 110.605469 204.578125 109.664062 204.582031 108.996094 C 204.585938 108.335938 203.734375 106.214844 203.734375 106.214844 " fill-opacity="1" fill-rule="nonzero"/><path fill="#f9aa78" d="M 218.121094 103.621094 C 218.136719 102.765625 218.777344 101.859375 219.894531 101.902344 C 221.007812 101.945312 221.1875 102.945312 221.175781 103.796875 C 221.175781 103.839844 221.046875 106.164062 220.820312 106.6875 C 220.59375 107.207031 220.304688 108.179688 219.503906 108.0625 C 218.976562 107.984375 218.523438 107.148438 218.292969 106.527344 C 218.058594 105.90625 218.121094 103.621094 218.121094 103.621094 " fill-opacity="1" fill-rule="nonzero"/><path fill="#261617" d="M 219 94.988281 C 218.246094 93.097656 215.976562 90.710938 214.253906 91.347656 C 212.523438 89.667969 210.300781 89.585938 208.003906 90.003906 C 202.5 90.992188 200.089844 95.558594 199.972656 98.898438 C 199.878906 101.472656 200.429688 103.964844 200.867188 105.707031 C 201.164062 105.308594 201.640625 105.148438 202.105469 105.066406 C 202.371094 106.101562 202.945312 109.132812 204.601562 110.382812 C 203.765625 108.585938 204.691406 107.117188 204.257812 105.371094 C 204.585938 105.144531 206.363281 105.085938 207.914062 103.839844 C 209.753906 102.371094 211.023438 100.25 211.199219 100.144531 C 210.910156 101.757812 208.285156 104.183594 208.496094 104.082031 C 210.375 103.230469 213.003906 100.292969 213.546875 97.8125 C 214.925781 101.734375 217.492188 102.183594 217.492188 102.183594 C 217.492188 102.183594 218.824219 104.488281 218.820312 106.234375 C 219.464844 105.402344 218.914062 103.128906 219.230469 102.179688 C 219.308594 101.933594 219.894531 101.902344 220.292969 101.96875 C 220.230469 100.460938 219.957031 97.378906 219 94.988281 " fill-opacity="1" fill-rule="nonzero"/><path fill="#b42026" d="M 217.953125 104.542969 C 217.859375 105.507812 217.304688 105.996094 216.542969 106.183594 C 214.820312 106.609375 213.578125 106.4375 212.910156 105.851562 C 212.226562 105.253906 212.46875 104.132812 212.46875 104.132812 C 212.46875 104.132812 212.585938 103.601562 213.152344 103.378906 C 214.234375 102.945312 216.0625 102.710938 216.75 102.726562 C 217.503906 102.746094 217.660156 102.984375 217.800781 103.308594 C 217.914062 103.582031 218.007812 103.988281 217.953125 104.542969 Z M 209.164062 106.511719 C 208.75 107.277344 207.667969 107.863281 205.933594 108.066406 C 205.167969 108.152344 204.492188 107.894531 204.078125 107.042969 C 203.835938 106.546875 203.785156 106.140625 203.796875 105.847656 C 203.816406 105.503906 203.878906 105.230469 204.5625 104.953125 C 205.191406 104.703125 206.953125 104.292969 208.097656 104.316406 C 208.699219 104.332031 208.984375 104.78125 208.984375 104.78125 C 208.984375 104.78125 209.59375 105.726562 209.164062 106.511719 Z M 218.65625 102.855469 C 218.472656 102.429688 218.257812 102.109375 217.257812 102.085938 C 216.339844 102.0625 213.898438 102.375 212.449219 102.953125 C 212.179688 103.058594 211.984375 103.222656 211.847656 103.382812 C 211.664062 103.277344 211.207031 103.078125 210.578125 103.195312 C 209.863281 103.324219 209.496094 103.742188 209.402344 103.867188 C 209.210938 103.746094 208.957031 103.644531 208.636719 103.640625 C 207.078125 103.601562 204.683594 104.164062 203.828125 104.507812 C 202.894531 104.878906 202.808594 105.25 202.789062 105.714844 C 202.769531 106.117188 202.839844 106.667969 203.167969 107.34375 C 203.734375 108.503906 204.652344 108.855469 205.691406 108.734375 C 208.046875 108.460938 209.523438 107.664062 210.085938 106.625 C 210.472656 105.90625 210.230469 105.09375 210.027344 104.636719 C 210.171875 104.464844 210.445312 104.207031 210.871094 104.128906 C 211.128906 104.082031 211.339844 104.121094 211.507812 104.183594 C 211.453125 104.625 211.429688 105.644531 212.128906 106.253906 C 213.019531 107.039062 214.679688 107.265625 216.984375 106.699219 C 217.996094 106.449219 218.734375 105.796875 218.863281 104.511719 C 218.9375 103.765625 218.808594 103.222656 218.65625 102.855469 " fill-opacity="1" fill-rule="nonzero"/><path fill="#b42026" d="M 214.390625 110.820312 C 214.390625 110.820312 214.054688 112.730469 212.335938 113.050781 C 210.742188 113.34375 209.625 111.699219 209.625 111.699219 C 209.625 111.699219 210.128906 111.582031 210.660156 111.304688 C 211.113281 111.066406 211.558594 110.96875 211.992188 111.121094 C 212.5625 110.703125 213.070312 110.804688 213.558594 110.84375 C 213.949219 110.878906 214.390625 110.820312 214.390625 110.820312 " fill-opacity="1" fill-rule="nonzero"/><path fill="#ffffff" d="M 214.335938 110.867188 C 214.335938 110.867188 213.933594 112.074219 212.214844 112.382812 C 210.621094 112.671875 209.71875 111.699219 209.71875 111.699219 C 209.71875 111.699219 211.117188 111.542969 212.070312 111.582031 C 213.144531 111.171875 214.335938 110.867188 214.335938 110.867188 " fill-opacity="1" fill-rule="nonzero"/><path fill="#d5835c" d="M 212.890625 108.484375 L 211.769531 109.921875 L 210.816406 104.617188 Z M 212.890625 108.484375 " fill-opacity="1" fill-rule="nonzero"/><path fill="#261617" d="M 215.777344 104.203125 C 215.863281 104.6875 215.546875 105.144531 215.066406 105.230469 C 214.585938 105.316406 214.128906 105 214.039062 104.519531 C 213.957031 104.039062 214.273438 103.578125 214.753906 103.492188 C 215.234375 103.40625 215.691406 103.722656 215.777344 104.203125 " fill-opacity="1" fill-rule="nonzero"/><path fill="#261617" d="M 215.152344 103.664062 C 215.789062 103.546875 216.382812 103.554688 216.839844 103.660156 C 216.511719 103.3125 215.828125 103.148438 215.085938 103.285156 C 214.34375 103.417969 213.757812 103.8125 213.570312 104.25 C 213.964844 103.992188 214.515625 103.777344 215.152344 103.664062 " fill-opacity="1" fill-rule="nonzero"/><path fill="#261617" d="M 206.460938 105.886719 C 206.546875 106.367188 207.003906 106.6875 207.484375 106.601562 C 207.960938 106.511719 208.28125 106.050781 208.195312 105.574219 C 208.109375 105.09375 207.648438 104.773438 207.171875 104.859375 C 206.691406 104.945312 206.375 105.402344 206.460938 105.886719 " fill-opacity="1" fill-rule="nonzero"/><path fill="#261617" d="M 206.855469 105.160156 C 206.222656 105.273438 205.667969 105.488281 205.273438 105.746094 C 205.460938 105.308594 206.042969 104.917969 206.789062 104.777344 C 207.535156 104.644531 208.214844 104.8125 208.546875 105.15625 C 208.085938 105.050781 207.492188 105.042969 206.855469 105.160156 " fill-opacity="1" fill-rule="nonzero"/><path fill="#261617" d="M 215.132812 100.550781 C 214.347656 100.476562 213.449219 100.707031 213.382812 100.800781 C 213.316406 100.890625 213.214844 101.457031 213.371094 101.496094 C 213.527344 101.535156 213.890625 101.132812 215.03125 101.132812 C 215.785156 101.136719 216.789062 101.609375 217.109375 101.84375 C 216.789062 101.289062 216.132812 100.648438 215.132812 100.550781 " fill-opacity="1" fill-rule="nonzero"/><path fill="#261617" d="M 205.328125 102.316406 C 206.039062 101.96875 206.960938 101.875 207.058594 101.941406 C 207.152344 102.003906 207.445312 102.496094 207.308594 102.589844 C 207.175781 102.679688 206.691406 102.429688 205.628906 102.828125 C 204.917969 103.09375 204.144531 103.890625 203.921875 104.21875 C 204.035156 103.589844 204.425781 102.757812 205.328125 102.316406 " fill-opacity="1" fill-rule="nonzero"/><g fill="#000000" fill-opacity="1"><g transform="translate(38.241577, 270.160995)"><g><path d="M 9.570312 0.265625 L 10.527344 0.363281 L 11.582031 0.328125 L 14.816406 -0.296875 L 16.53125 -1.222656 L 17.589844 -1.945312 L 18.511719 -3.003906 L 19.171875 -4.058594 L 19.4375 -4.652344 L 19.636719 -5.3125 L 19.734375 -5.90625 L 19.765625 -7.953125 L 19.667969 -8.613281 L 19.503906 -9.238281 L 18.84375 -10.460938 L 18.050781 -11.484375 L 17.488281 -11.945312 L 15.742188 -12.738281 L 13.035156 -13.398438 L 9.703125 -13.828125 L 8.316406 -14.320312 L 7.820312 -14.585938 L 7.292969 -15.113281 L 7.261719 -16.003906 L 7.359375 -16.863281 L 7.722656 -17.324219 L 8.28125 -17.753906 L 8.746094 -17.953125 L 9.339844 -18.085938 L 11.449219 -18.148438 L 12.175781 -17.886719 L 12.671875 -17.488281 L 13.761719 -16.335938 L 14.785156 -16.003906 L 16.960938 -15.9375 L 17.554688 -16.003906 L 18.183594 -15.9375 L 18.808594 -16.335938 L 19.105469 -16.960938 L 18.84375 -18.25 L 18.316406 -19.4375 L 17.886719 -19.964844 L 17.554688 -20.492188 L 17.128906 -20.988281 L 15.015625 -22.441406 L 13.199219 -23.066406 L 12.507812 -23.199219 L 11.914062 -23.265625 L 11.1875 -23.429688 L 9.339844 -23.398438 L 6.730469 -22.867188 L 6.136719 -22.636719 L 5.609375 -22.308594 L 5.082031 -22.109375 L 4.421875 -21.714844 L 3.960938 -21.285156 L 3.367188 -20.890625 L 3.003906 -20.328125 L 2.574219 -19.898438 L 2.34375 -19.304688 L 2.011719 -18.777344 L 1.550781 -16.863281 L 1.585938 -14.652344 L 1.816406 -13.726562 L 2.242188 -12.574219 L 3.070312 -11.484375 L 3.992188 -10.625 L 5.148438 -9.933594 L 7.027344 -9.304688 L 8.21875 -9.042969 L 10.921875 -8.84375 L 11.515625 -8.746094 L 12.175781 -8.710938 L 13.363281 -8.21875 L 13.828125 -7.820312 L 13.992188 -6.964844 L 13.792969 -6.105469 L 13.265625 -5.644531 L 12.738281 -5.347656 L 11.515625 -4.984375 L 10.59375 -4.949219 L 9.601562 -5.015625 L 8.84375 -5.214844 L 8.347656 -5.445312 L 7.753906 -5.808594 L 7.261719 -6.269531 L 6.765625 -6.929688 L 6.105469 -7.195312 L 3.597656 -7.261719 L 2.9375 -7.195312 L 2.277344 -7.226562 L 1.617188 -6.929688 L 1.386719 -6.238281 L 1.453125 -5.511719 L 1.585938 -4.917969 L 2.113281 -3.597656 L 2.9375 -2.574219 L 3.894531 -1.617188 L 4.453125 -1.253906 L 6.832031 -0.164062 L 7.558594 -0.0664062 L 8.183594 0.164062 Z M 9.570312 0.265625 "/></g></g></g><g fill="#000000" fill-opacity="1"><g transform="translate(59.295535, 270.160995)"><g><path d="M 2.375 -0.957031 L 2.804688 -0.328125 L 3.433594 0.03125 L 10.890625 -0.03125 L 11.484375 0.0664062 L 13.496094 -0.03125 L 15.511719 0.0976562 L 16.136719 0.03125 L 16.828125 -0.296875 L 17.128906 -0.925781 L 17.191406 -1.550781 L 17.160156 -3.597656 L 17.226562 -4.222656 L 16.796875 -4.882812 L 15.808594 -5.214844 L 11.449219 -5.28125 L 10.824219 -5.179688 L 10.097656 -5.246094 L 9.371094 -5.179688 L 8.679688 -5.578125 L 8.382812 -6.601562 L 8.414062 -8.21875 L 8.710938 -8.910156 L 9.304688 -9.273438 L 10.59375 -9.273438 L 11.253906 -9.339844 L 13.003906 -9.238281 L 13.894531 -9.304688 L 14.585938 -9.238281 L 15.179688 -9.273438 L 15.839844 -9.636719 L 16.171875 -10.261719 L 16.234375 -12.871094 L 16.171875 -13.53125 L 15.871094 -14.15625 L 15.3125 -14.519531 L 13.992188 -14.554688 L 13.332031 -14.488281 L 12.640625 -14.488281 L 11.878906 -14.554688 L 9.273438 -14.519531 L 8.710938 -14.882812 L 8.316406 -15.476562 L 8.25 -16.5 L 8.578125 -17.457031 L 9.601562 -17.753906 L 15.9375 -17.785156 L 16.632812 -18.148438 L 16.996094 -18.742188 L 16.929688 -20.097656 L 16.828125 -20.722656 L 16.863281 -21.449219 L 16.960938 -22.078125 L 16.632812 -22.738281 L 15.9375 -23.035156 L 13.300781 -23.066406 L 12.703125 -23 L 12.046875 -23.101562 L 10.59375 -23.035156 L 9.933594 -23.101562 L 8.644531 -23.066406 L 8.050781 -23.132812 L 3.730469 -23.035156 L 2.773438 -22.804688 L 2.441406 -22.078125 L 2.507812 -20.757812 L 2.375 -19.800781 L 2.507812 -18.117188 L 2.441406 -17.425781 L 2.507812 -16.828125 L 2.507812 -10.921875 L 2.410156 -10.230469 L 2.507812 -8.941406 L 2.441406 -7.621094 L 2.539062 -6.929688 L 2.476562 -6.203125 L 2.507812 -5.578125 L 2.410156 -4.984375 L 2.476562 -4.222656 L 2.476562 -3.5625 L 2.539062 -2.277344 L 2.507812 -1.617188 Z M 2.375 -0.957031 "/></g></g></g><g fill="#000000" fill-opacity="1"><g transform="translate(78.204492, 270.160995)"><g><path d="M 2.375 -0.957031 L 2.804688 -0.328125 L 3.433594 0.03125 L 10.890625 -0.03125 L 11.484375 0.0664062 L 13.496094 -0.03125 L 15.511719 0.0976562 L 16.136719 0.03125 L 16.828125 -0.296875 L 17.128906 -0.925781 L 17.191406 -1.550781 L 17.160156 -3.597656 L 17.226562 -4.222656 L 16.796875 -4.882812 L 15.808594 -5.214844 L 11.449219 -5.28125 L 10.824219 -5.179688 L 10.097656 -5.246094 L 9.371094 -5.179688 L 8.679688 -5.578125 L 8.382812 -6.601562 L 8.414062 -8.21875 L 8.710938 -8.910156 L 9.304688 -9.273438 L 10.59375 -9.273438 L 11.253906 -9.339844 L 13.003906 -9.238281 L 13.894531 -9.304688 L 14.585938 -9.238281 L 15.179688 -9.273438 L 15.839844 -9.636719 L 16.171875 -10.261719 L 16.234375 -12.871094 L 16.171875 -13.53125 L 15.871094 -14.15625 L 15.3125 -14.519531 L 13.992188 -14.554688 L 13.332031 -14.488281 L 12.640625 -14.488281 L 11.878906 -14.554688 L 9.273438 -14.519531 L 8.710938 -14.882812 L 8.316406 -15.476562 L 8.25 -16.5 L 8.578125 -17.457031 L 9.601562 -17.753906 L 15.9375 -17.785156 L 16.632812 -18.148438 L 16.996094 -18.742188 L 16.929688 -20.097656 L 16.828125 -20.722656 L 16.863281 -21.449219 L 16.960938 -22.078125 L 16.632812 -22.738281 L 15.9375 -23.035156 L 13.300781 -23.066406 L 12.703125 -23 L 12.046875 -23.101562 L 10.59375 -23.035156 L 9.933594 -23.101562 L 8.644531 -23.066406 L 8.050781 -23.132812 L 3.730469 -23.035156 L 2.773438 -22.804688 L 2.441406 -22.078125 L 2.507812 -20.757812 L 2.375 -19.800781 L 2.507812 -18.117188 L 2.441406 -17.425781 L 2.507812 -16.828125 L 2.507812 -10.921875 L 2.410156 -10.230469 L 2.507812 -8.941406 L 2.441406 -7.621094 L 2.539062 -6.929688 L 2.476562 -6.203125 L 2.507812 -5.578125 L 2.410156 -4.984375 L 2.476562 -4.222656 L 2.476562 -3.5625 L 2.539062 -2.277344 L 2.507812 -1.617188 Z M 2.375 -0.957031 "/></g></g></g><g fill="#000000" fill-opacity="1"><g transform="translate(97.11345, 270.160995)"><g/></g></g><g fill="#000000" fill-opacity="1"><g transform="translate(106.056434, 270.160995)"><g><path d="M 2.441406 -0.957031 L 2.738281 -0.363281 L 3.53125 0 L 7.160156 -0.0664062 L 8.152344 -0.363281 L 8.515625 -0.890625 L 8.578125 -1.519531 L 8.546875 -2.210938 L 8.449219 -2.902344 L 8.546875 -7.359375 L 8.414062 -9.273438 L 8.710938 -9.734375 L 9.207031 -9.601562 L 10.03125 -8.578125 L 11.878906 -6.832031 L 12.308594 -6.269531 L 13.398438 -5.378906 L 14.15625 -5.378906 L 14.71875 -5.773438 L 17.488281 -8.578125 L 17.917969 -9.140625 L 18.382812 -9.601562 L 18.777344 -9.667969 L 19.039062 -9.273438 L 19.140625 -8.613281 L 19.039062 -7.984375 L 19.074219 -7.390625 L 19.039062 -6.730469 L 19.140625 -5.511719 L 19.039062 -0.957031 L 19.371094 -0.265625 L 20.097656 0 L 24.058594 0.03125 L 24.683594 -0.363281 L 25.046875 -1.054688 L 25.144531 -1.714844 L 25.015625 -5.675781 L 25.078125 -6.304688 L 25.015625 -7.589844 L 25.113281 -8.25 L 25.078125 -8.910156 L 25.144531 -9.601562 L 25.078125 -10.261719 L 25.179688 -10.855469 L 25.078125 -20.195312 L 25.144531 -20.890625 L 25.078125 -21.449219 L 25.113281 -22.144531 L 24.75 -22.769531 L 24.089844 -23.164062 L 23.101562 -22.867188 L 22.273438 -22.40625 L 21.515625 -21.484375 L 19.636719 -19.535156 L 19.339844 -19.039062 L 14.453125 -13.859375 L 13.726562 -13.628906 L 13.132812 -13.828125 L 12.703125 -14.257812 L 12.308594 -14.816406 L 11.78125 -15.246094 L 11.386719 -15.773438 L 9.109375 -18.117188 L 8.316406 -19.105469 L 7.753906 -19.601562 L 7.324219 -20.0625 L 6.964844 -20.558594 L 6.5 -20.988281 L 6.136719 -21.449219 L 5.410156 -22.210938 L 4.453125 -22.902344 L 3.496094 -23.164062 L 2.839844 -22.804688 L 2.476562 -22.144531 L 2.410156 -21.449219 L 2.507812 -6.898438 L 2.375 -6.269531 L 2.507812 -1.585938 Z M 2.441406 -0.957031 "/></g></g></g><g fill="#000000" fill-opacity="1"><g transform="translate(133.644373, 270.160995)"><g><path d="M 7.589844 -0.925781 L 7.953125 -0.363281 L 8.578125 -0.03125 L 9.769531 0.03125 L 10.429688 -0.03125 L 11.121094 0 L 12.046875 -0.03125 L 13.035156 -0.363281 L 13.363281 -1.023438 L 13.363281 -1.585938 L 13.300781 -2.277344 L 13.332031 -2.902344 L 13.300781 -3.496094 L 13.464844 -5.511719 L 13.363281 -6.203125 L 13.464844 -8.117188 L 13.332031 -8.710938 L 13.496094 -9.667969 L 14.652344 -11.683594 L 14.914062 -12.308594 L 15.277344 -12.871094 L 16.105469 -13.960938 L 19.898438 -20.230469 L 20.296875 -20.722656 L 20.527344 -21.316406 L 20.988281 -22.109375 L 20.890625 -22.902344 L 20.261719 -23.164062 L 19.601562 -23.066406 L 18.316406 -23.164062 L 17.621094 -23.066406 L 16.367188 -23.066406 L 15.742188 -23.132812 L 14.914062 -22.804688 L 14.222656 -22.175781 L 13.660156 -21.054688 L 13.234375 -20.425781 L 13.035156 -19.800781 L 12.277344 -18.710938 L 11.78125 -17.523438 L 10.691406 -15.742188 L 10.230469 -15.675781 L 9.472656 -16.863281 L 9.175781 -17.457031 L 8.976562 -18.117188 L 7.324219 -21.019531 L 6.964844 -21.582031 L 6.699219 -22.242188 L 5.972656 -22.769531 L 5.148438 -23.132812 L 0.792969 -23.066406 L 0.0664062 -22.867188 L 0 -22.144531 L 0.328125 -21.351562 L 3.894531 -15.707031 L 4.15625 -15.148438 L 7.09375 -10.527344 L 7.359375 -9.667969 L 7.523438 -8.710938 L 7.492188 -6.105469 L 7.558594 -5.445312 L 7.589844 -4.816406 L 7.523438 -4.222656 L 7.492188 -2.96875 L 7.65625 -1.617188 Z M 7.589844 -0.925781 "/></g></g></g><g fill="#000000" fill-opacity="1"><g transform="translate(154.632332, 270.160995)"><g/></g></g><g fill="#000000" fill-opacity="1"><g transform="translate(163.575317, 270.160995)"><g><path d="M 12.144531 0.328125 L 14.125 0.429688 L 17.324219 -0.230469 L 19.140625 -1.023438 L 19.636719 -1.351562 L 20.230469 -1.714844 L 20.789062 -2.113281 L 21.21875 -2.539062 L 21.582031 -3.101562 L 22.144531 -3.53125 L 23.132812 -5.246094 L 23.429688 -5.839844 L 23.59375 -6.46875 L 23.824219 -7.128906 L 23.925781 -7.753906 L 23.726562 -8.347656 L 22.902344 -8.710938 L 19.371094 -8.746094 L 18.644531 -8.414062 L 17.984375 -7.789062 L 17.722656 -7.226562 L 16.46875 -5.875 L 15.34375 -5.3125 L 14.683594 -5.113281 L 13.992188 -5.050781 L 12.144531 -5.082031 L 10.363281 -5.742188 L 9.734375 -6.039062 L 9.304688 -6.5 L 8.085938 -8.085938 L 7.820312 -8.644531 L 7.425781 -9.933594 L 7.324219 -11.484375 L 7.359375 -12.539062 L 7.589844 -13.132812 L 7.621094 -13.792969 L 7.820312 -14.386719 L 8.382812 -15.574219 L 9.207031 -16.597656 L 10.296875 -17.390625 L 10.921875 -17.65625 L 12.078125 -17.984375 L 14.125 -17.917969 L 15.378906 -17.6875 L 16.070312 -17.457031 L 17.027344 -16.664062 L 17.523438 -16.136719 L 17.820312 -15.574219 L 18.414062 -14.949219 L 19.140625 -14.652344 L 22.472656 -14.585938 L 23.132812 -14.652344 L 23.660156 -14.949219 L 23.859375 -15.640625 L 23.59375 -16.300781 L 23.496094 -16.894531 L 22.96875 -18.148438 L 21.746094 -19.832031 L 20.03125 -21.382812 L 19.304688 -21.878906 L 17.425781 -22.738281 L 16.136719 -23.101562 L 14.488281 -23.332031 L 11.484375 -23.332031 L 10.921875 -23.265625 L 10.296875 -23.066406 L 9.007812 -22.804688 L 8.382812 -22.570312 L 7.886719 -22.273438 L 7.292969 -22.042969 L 4.984375 -20.558594 L 4.585938 -20.03125 L 3.695312 -19.207031 L 3.300781 -18.644531 L 1.78125 -15.675781 L 1.1875 -11.550781 L 1.320312 -10.492188 L 1.320312 -9.175781 L 1.648438 -7.886719 L 1.914062 -7.261719 L 2.011719 -6.664062 L 2.34375 -6.070312 L 2.574219 -5.511719 L 3.894531 -3.597656 L 5.082031 -2.441406 L 5.644531 -2.078125 L 6.136719 -1.683594 L 8.382812 -0.460938 L 9.042969 -0.230469 L 9.535156 -0.0976562 L 10.230469 0.132812 L 10.921875 0.199219 L 11.515625 0.328125 Z M 12.144531 0.328125 "/></g></g></g><g fill="#000000" fill-opacity="1"><g transform="translate(188.754263, 270.160995)"><g><path d="M 9.734375 0.265625 L 11.320312 0.394531 L 12.96875 0.328125 L 14.289062 0.03125 L 14.980469 -0.230469 L 15.640625 -0.394531 L 16.171875 -0.726562 L 16.765625 -0.988281 L 17.292969 -1.351562 L 18.777344 -2.671875 L 19.140625 -3.265625 L 19.570312 -3.761719 L 19.765625 -4.421875 L 20.097656 -4.984375 L 20.328125 -5.609375 L 20.558594 -8.941406 L 20.460938 -11.617188 L 20.59375 -12.308594 L 20.59375 -12.902344 L 20.460938 -13.5625 L 20.425781 -14.191406 L 20.492188 -14.882812 L 20.460938 -15.808594 L 20.527344 -16.828125 L 20.492188 -17.554688 L 20.59375 -18.183594 L 20.492188 -18.84375 L 20.527344 -21.515625 L 20.425781 -22.078125 L 20.164062 -22.804688 L 19.105469 -23.101562 L 16.003906 -23.132812 L 15.277344 -22.835938 L 14.949219 -22.109375 L 14.980469 -18.875 L 14.914062 -18.214844 L 14.949219 -16.929688 L 14.882812 -16.234375 L 14.980469 -15.542969 L 14.882812 -12.9375 L 15.015625 -12.34375 L 14.949219 -11.617188 L 14.980469 -10.429688 L 14.914062 -9.769531 L 14.949219 -8.085938 L 14.816406 -7.027344 L 14.519531 -6.402344 L 14.222656 -5.941406 L 13.695312 -5.445312 L 12.375 -5.015625 L 11.484375 -4.949219 L 10.394531 -5.015625 L 9.800781 -5.179688 L 9.074219 -5.542969 L 8.578125 -5.972656 L 8.183594 -6.433594 L 7.984375 -7.128906 L 7.921875 -12.9375 L 7.820312 -13.597656 L 7.789062 -15.640625 L 7.855469 -16.234375 L 7.855469 -18.875 L 7.753906 -19.832031 L 7.753906 -20.460938 L 7.921875 -21.449219 L 7.921875 -22.144531 L 7.558594 -22.769531 L 6.765625 -23.066406 L 3.300781 -23.101562 L 2.640625 -22.738281 L 2.34375 -22.078125 L 2.34375 -20.097656 L 2.179688 -19.535156 L 2.308594 -18.148438 L 2.210938 -16.894531 L 2.375 -14.914062 L 2.242188 -14.289062 L 2.34375 -13.5625 L 2.277344 -12.9375 L 2.308594 -12.277344 L 2.242188 -11.648438 L 2.34375 -10.328125 L 2.308594 -7.953125 L 2.410156 -6.996094 L 2.410156 -6.304688 L 2.605469 -5.644531 L 2.707031 -5.015625 L 2.902344 -4.390625 L 3.5625 -3.265625 L 4.453125 -2.179688 L 4.882812 -1.75 L 6.007812 -1.089844 L 6.5 -0.691406 L 7.128906 -0.429688 L 7.886719 -0.199219 L 8.382812 0.0664062 L 9.109375 0.0976562 Z M 9.734375 0.265625 "/></g></g></g><g fill="#000000" fill-opacity="1"><g transform="translate(211.524216, 270.160995)"><g><path d="M 2.539062 -1.054688 L 2.773438 -0.328125 L 3.433594 0 L 4.058594 0.03125 L 5.410156 -0.0664062 L 6.105469 0 L 7.09375 0 L 8.117188 -0.328125 L 8.347656 -0.957031 L 8.414062 -1.648438 L 8.28125 -2.34375 L 8.382812 -3.761719 L 8.316406 -5.808594 L 8.613281 -6.46875 L 9.273438 -6.796875 L 9.867188 -6.796875 L 10.460938 -6.832031 L 11.285156 -6.566406 L 11.8125 -6.007812 L 12.671875 -4.851562 L 12.902344 -4.222656 L 13.828125 -2.574219 L 14.257812 -1.945312 L 14.554688 -1.386719 L 14.949219 -0.859375 L 15.609375 -0.265625 L 16.433594 -0.0664062 L 17.621094 0 L 18.347656 -0.0664062 L 19.007812 0 L 20.328125 0 L 21.054688 -0.0664062 L 21.746094 -0.230469 L 21.878906 -0.925781 L 21.449219 -1.75 L 20.394531 -3.367188 L 20.097656 -3.925781 L 19.699219 -4.519531 L 19.371094 -5.113281 L 18.941406 -5.644531 L 17.953125 -7.359375 L 17.851562 -8.152344 L 18.214844 -8.84375 L 19.140625 -9.734375 L 19.535156 -10.296875 L 19.765625 -10.921875 L 20.128906 -11.515625 L 20.359375 -12.078125 L 20.722656 -13.332031 L 20.757812 -15.9375 L 20.59375 -16.566406 L 20.492188 -17.191406 L 20.328125 -17.851562 L 19.4375 -19.667969 L 18.976562 -20.164062 L 18.679688 -20.65625 L 17.027344 -21.910156 L 15.871094 -22.507812 L 13.132812 -23.066406 L 12.308594 -23.132812 L 11.351562 -23.101562 L 10.625 -23.132812 L 9.964844 -23.066406 L 9.238281 -23.132812 L 8.679688 -23.066406 L 6.699219 -23.132812 L 6.070312 -23.035156 L 4.71875 -23.164062 L 4.09375 -23.066406 L 3.367188 -23.101562 L 2.738281 -22.804688 L 2.476562 -22.109375 L 2.375 -12.871094 L 2.476562 -11.914062 L 2.476562 -10.261719 L 2.410156 -9.570312 L 2.375 -8.316406 L 2.476562 -7.589844 L 2.375 -6.238281 L 2.507812 -4.324219 L 2.441406 -3.628906 Z M 9.273438 -12.144531 L 8.710938 -12.441406 L 8.382812 -13.132812 L 8.28125 -16.828125 L 8.679688 -17.488281 L 9.339844 -17.820312 L 9.867188 -17.851562 L 11.683594 -17.820312 L 13.199219 -17.621094 L 14.222656 -16.996094 L 14.554688 -16.5 L 14.785156 -15.972656 L 14.851562 -15.015625 L 14.75 -14.125 L 14.488281 -13.464844 L 14.125 -12.902344 L 13.726562 -12.507812 L 13.234375 -12.277344 L 10.660156 -12.046875 L 10 -12.144531 Z M 9.273438 -12.144531 "/></g></g></g><g fill="#000000" fill-opacity="1"><g transform="translate(234.393161, 270.160995)"><g><path d="M 2.539062 -1.054688 L 2.773438 -0.328125 L 3.433594 0 L 4.058594 0.03125 L 5.410156 -0.0664062 L 6.105469 0 L 7.09375 0 L 8.117188 -0.328125 L 8.347656 -0.957031 L 8.414062 -1.648438 L 8.28125 -2.34375 L 8.382812 -3.761719 L 8.316406 -5.808594 L 8.613281 -6.46875 L 9.273438 -6.796875 L 9.867188 -6.796875 L 10.460938 -6.832031 L 11.285156 -6.566406 L 11.8125 -6.007812 L 12.671875 -4.851562 L 12.902344 -4.222656 L 13.828125 -2.574219 L 14.257812 -1.945312 L 14.554688 -1.386719 L 14.949219 -0.859375 L 15.609375 -0.265625 L 16.433594 -0.0664062 L 17.621094 0 L 18.347656 -0.0664062 L 19.007812 0 L 20.328125 0 L 21.054688 -0.0664062 L 21.746094 -0.230469 L 21.878906 -0.925781 L 21.449219 -1.75 L 20.394531 -3.367188 L 20.097656 -3.925781 L 19.699219 -4.519531 L 19.371094 -5.113281 L 18.941406 -5.644531 L 17.953125 -7.359375 L 17.851562 -8.152344 L 18.214844 -8.84375 L 19.140625 -9.734375 L 19.535156 -10.296875 L 19.765625 -10.921875 L 20.128906 -11.515625 L 20.359375 -12.078125 L 20.722656 -13.332031 L 20.757812 -15.9375 L 20.59375 -16.566406 L 20.492188 -17.191406 L 20.328125 -17.851562 L 19.4375 -19.667969 L 18.976562 -20.164062 L 18.679688 -20.65625 L 17.027344 -21.910156 L 15.871094 -22.507812 L 13.132812 -23.066406 L 12.308594 -23.132812 L 11.351562 -23.101562 L 10.625 -23.132812 L 9.964844 -23.066406 L 9.238281 -23.132812 L 8.679688 -23.066406 L 6.699219 -23.132812 L 6.070312 -23.035156 L 4.71875 -23.164062 L 4.09375 -23.066406 L 3.367188 -23.101562 L 2.738281 -22.804688 L 2.476562 -22.109375 L 2.375 -12.871094 L 2.476562 -11.914062 L 2.476562 -10.261719 L 2.410156 -9.570312 L 2.375 -8.316406 L 2.476562 -7.589844 L 2.375 -6.238281 L 2.507812 -4.324219 L 2.441406 -3.628906 Z M 9.273438 -12.144531 L 8.710938 -12.441406 L 8.382812 -13.132812 L 8.28125 -16.828125 L 8.679688 -17.488281 L 9.339844 -17.820312 L 9.867188 -17.851562 L 11.683594 -17.820312 L 13.199219 -17.621094 L 14.222656 -16.996094 L 14.554688 -16.5 L 14.785156 -15.972656 L 14.851562 -15.015625 L 14.75 -14.125 L 14.488281 -13.464844 L 14.125 -12.902344 L 13.726562 -12.507812 L 13.234375 -12.277344 L 10.660156 -12.046875 L 10 -12.144531 Z M 9.273438 -12.144531 "/></g></g></g><g fill="#000000" fill-opacity="1"><g transform="translate(257.262117, 270.160995)"><g><path d="M 1.585938 -0.957031 L 1.914062 -0.265625 L 2.574219 -0.03125 L 12.375 0.03125 L 13.003906 -0.296875 L 13.363281 -0.890625 L 13.363281 -1.617188 L 13.300781 -2.210938 L 13.398438 -4.222656 L 12.9375 -4.785156 L 10.726562 -5.476562 L 10.363281 -6.136719 L 10.429688 -8.84375 L 10.296875 -10.164062 L 10.429688 -11.550781 L 10.363281 -12.539062 L 10.429688 -13.5625 L 10.363281 -14.191406 L 10.429688 -14.851562 L 10.363281 -15.542969 L 10.363281 -16.929688 L 10.726562 -17.523438 L 11.351562 -17.886719 L 12.078125 -17.917969 L 12.703125 -18.28125 L 13.066406 -18.910156 L 13.066406 -20.855469 L 13.132812 -21.449219 L 13.066406 -22.109375 L 12.804688 -22.769531 L 11.746094 -23.066406 L 7.558594 -23.101562 L 6.832031 -23.035156 L 4.816406 -23.066406 L 4.191406 -23.035156 L 2.902344 -23.101562 L 2.179688 -22.769531 L 1.816406 -22.078125 L 1.816406 -21.449219 L 1.75 -20.890625 L 1.75 -20.164062 L 1.816406 -19.503906 L 1.816406 -18.875 L 2.144531 -18.25 L 4.15625 -17.554688 L 4.585938 -16.960938 L 4.488281 -14.15625 L 4.519531 -13.597656 L 4.621094 -12.835938 L 4.585938 -11.484375 L 4.519531 -10.824219 L 4.652344 -9.535156 L 4.488281 -8.878906 L 4.621094 -7.457031 L 4.554688 -6.171875 L 4.222656 -5.445312 L 2.046875 -4.753906 L 1.648438 -4.125 L 1.585938 -3.496094 Z M 1.585938 -0.957031 "/></g></g></g><g fill="#000000" fill-opacity="1"><g transform="translate(272.24408, 270.160995)"><g><path d="M 12.144531 0.328125 L 14.125 0.429688 L 17.324219 -0.230469 L 19.140625 -1.023438 L 19.636719 -1.351562 L 20.230469 -1.714844 L 20.789062 -2.113281 L 21.21875 -2.539062 L 21.582031 -3.101562 L 22.144531 -3.53125 L 23.132812 -5.246094 L 23.429688 -5.839844 L 23.59375 -6.46875 L 23.824219 -7.128906 L 23.925781 -7.753906 L 23.726562 -8.347656 L 22.902344 -8.710938 L 19.371094 -8.746094 L 18.644531 -8.414062 L 17.984375 -7.789062 L 17.722656 -7.226562 L 16.46875 -5.875 L 15.34375 -5.3125 L 14.683594 -5.113281 L 13.992188 -5.050781 L 12.144531 -5.082031 L 10.363281 -5.742188 L 9.734375 -6.039062 L 9.304688 -6.5 L 8.085938 -8.085938 L 7.820312 -8.644531 L 7.425781 -9.933594 L 7.324219 -11.484375 L 7.359375 -12.539062 L 7.589844 -13.132812 L 7.621094 -13.792969 L 7.820312 -14.386719 L 8.382812 -15.574219 L 9.207031 -16.597656 L 10.296875 -17.390625 L 10.921875 -17.65625 L 12.078125 -17.984375 L 14.125 -17.917969 L 15.378906 -17.6875 L 16.070312 -17.457031 L 17.027344 -16.664062 L 17.523438 -16.136719 L 17.820312 -15.574219 L 18.414062 -14.949219 L 19.140625 -14.652344 L 22.472656 -14.585938 L 23.132812 -14.652344 L 23.660156 -14.949219 L 23.859375 -15.640625 L 23.59375 -16.300781 L 23.496094 -16.894531 L 22.96875 -18.148438 L 21.746094 -19.832031 L 20.03125 -21.382812 L 19.304688 -21.878906 L 17.425781 -22.738281 L 16.136719 -23.101562 L 14.488281 -23.332031 L 11.484375 -23.332031 L 10.921875 -23.265625 L 10.296875 -23.066406 L 9.007812 -22.804688 L 8.382812 -22.570312 L 7.886719 -22.273438 L 7.292969 -22.042969 L 4.984375 -20.558594 L 4.585938 -20.03125 L 3.695312 -19.207031 L 3.300781 -18.644531 L 1.78125 -15.675781 L 1.1875 -11.550781 L 1.320312 -10.492188 L 1.320312 -9.175781 L 1.648438 -7.886719 L 1.914062 -7.261719 L 2.011719 -6.664062 L 2.34375 -6.070312 L 2.574219 -5.511719 L 3.894531 -3.597656 L 5.082031 -2.441406 L 5.644531 -2.078125 L 6.136719 -1.683594 L 8.382812 -0.460938 L 9.042969 -0.230469 L 9.535156 -0.0976562 L 10.230469 0.132812 L 10.921875 0.199219 L 11.515625 0.328125 Z M 12.144531 0.328125 "/></g></g></g><g fill="#000000" fill-opacity="1"><g transform="translate(297.423025, 270.160995)"><g><path d="M 9.734375 0.265625 L 11.320312 0.394531 L 12.96875 0.328125 L 14.289062 0.03125 L 14.980469 -0.230469 L 15.640625 -0.394531 L 16.171875 -0.726562 L 16.765625 -0.988281 L 17.292969 -1.351562 L 18.777344 -2.671875 L 19.140625 -3.265625 L 19.570312 -3.761719 L 19.765625 -4.421875 L 20.097656 -4.984375 L 20.328125 -5.609375 L 20.558594 -8.941406 L 20.460938 -11.617188 L 20.59375 -12.308594 L 20.59375 -12.902344 L 20.460938 -13.5625 L 20.425781 -14.191406 L 20.492188 -14.882812 L 20.460938 -15.808594 L 20.527344 -16.828125 L 20.492188 -17.554688 L 20.59375 -18.183594 L 20.492188 -18.84375 L 20.527344 -21.515625 L 20.425781 -22.078125 L 20.164062 -22.804688 L 19.105469 -23.101562 L 16.003906 -23.132812 L 15.277344 -22.835938 L 14.949219 -22.109375 L 14.980469 -18.875 L 14.914062 -18.214844 L 14.949219 -16.929688 L 14.882812 -16.234375 L 14.980469 -15.542969 L 14.882812 -12.9375 L 15.015625 -12.34375 L 14.949219 -11.617188 L 14.980469 -10.429688 L 14.914062 -9.769531 L 14.949219 -8.085938 L 14.816406 -7.027344 L 14.519531 -6.402344 L 14.222656 -5.941406 L 13.695312 -5.445312 L 12.375 -5.015625 L 11.484375 -4.949219 L 10.394531 -5.015625 L 9.800781 -5.179688 L 9.074219 -5.542969 L 8.578125 -5.972656 L 8.183594 -6.433594 L 7.984375 -7.128906 L 7.921875 -12.9375 L 7.820312 -13.597656 L 7.789062 -15.640625 L 7.855469 -16.234375 L 7.855469 -18.875 L 7.753906 -19.832031 L 7.753906 -20.460938 L 7.921875 -21.449219 L 7.921875 -22.144531 L 7.558594 -22.769531 L 6.765625 -23.066406 L 3.300781 -23.101562 L 2.640625 -22.738281 L 2.34375 -22.078125 L 2.34375 -20.097656 L 2.179688 -19.535156 L 2.308594 -18.148438 L 2.210938 -16.894531 L 2.375 -14.914062 L 2.242188 -14.289062 L 2.34375 -13.5625 L 2.277344 -12.9375 L 2.308594 -12.277344 L 2.242188 -11.648438 L 2.34375 -10.328125 L 2.308594 -7.953125 L 2.410156 -6.996094 L 2.410156 -6.304688 L 2.605469 -5.644531 L 2.707031 -5.015625 L 2.902344 -4.390625 L 3.5625 -3.265625 L 4.453125 -2.179688 L 4.882812 -1.75 L 6.007812 -1.089844 L 6.5 -0.691406 L 7.128906 -0.429688 L 7.886719 -0.199219 L 8.382812 0.0664062 L 9.109375 0.0976562 Z M 9.734375 0.265625 "/></g></g></g><g fill="#000000" fill-opacity="1"><g transform="translate(320.19299, 270.160995)"><g><path d="M 2.476562 -0.957031 L 2.773438 -0.363281 L 3.828125 0.03125 L 15.511719 -0.03125 L 16.433594 -0.363281 L 16.796875 -0.957031 L 16.730469 -1.683594 L 16.765625 -2.34375 L 16.828125 -2.9375 L 16.730469 -3.664062 L 16.828125 -4.289062 L 16.402344 -5.015625 L 15.871094 -5.347656 L 15.148438 -5.246094 L 9.339844 -5.3125 L 8.644531 -5.609375 L 8.449219 -6.335938 L 8.480469 -7.558594 L 8.382812 -8.183594 L 8.414062 -8.910156 L 8.347656 -9.570312 L 8.414062 -10.261719 L 8.382812 -11.914062 L 8.480469 -12.835938 L 8.382812 -13.5625 L 8.480469 -14.257812 L 8.382812 -19.402344 L 8.449219 -20.128906 L 8.382812 -21.746094 L 8.050781 -22.738281 L 7.195312 -23.132812 L 3.761719 -23.066406 L 2.804688 -22.703125 L 2.375 -21.8125 L 2.574219 -20.097656 L 2.507812 -19.46875 L 2.410156 -18.777344 L 2.507812 -18.117188 L 2.574219 -17.488281 L 2.476562 -16.765625 L 2.507812 -16.136719 L 2.441406 -15.476562 L 2.539062 -14.785156 L 2.441406 -14.191406 L 2.507812 -13.53125 L 2.410156 -12.902344 L 2.507812 -11.484375 L 2.410156 -10.855469 L 2.507812 -9.535156 L 2.410156 -8.878906 L 2.441406 -7.558594 L 2.507812 -6.964844 L 2.476562 -2.9375 L 2.539062 -2.277344 L 2.410156 -1.648438 Z M 2.476562 -0.957031 "/></g></g></g><g fill="#000000" fill-opacity="1"><g transform="translate(337.946941, 270.160995)"><g><path d="M 9.734375 0.265625 L 11.320312 0.394531 L 12.96875 0.328125 L 14.289062 0.03125 L 14.980469 -0.230469 L 15.640625 -0.394531 L 16.171875 -0.726562 L 16.765625 -0.988281 L 17.292969 -1.351562 L 18.777344 -2.671875 L 19.140625 -3.265625 L 19.570312 -3.761719 L 19.765625 -4.421875 L 20.097656 -4.984375 L 20.328125 -5.609375 L 20.558594 -8.941406 L 20.460938 -11.617188 L 20.59375 -12.308594 L 20.59375 -12.902344 L 20.460938 -13.5625 L 20.425781 -14.191406 L 20.492188 -14.882812 L 20.460938 -15.808594 L 20.527344 -16.828125 L 20.492188 -17.554688 L 20.59375 -18.183594 L 20.492188 -18.84375 L 20.527344 -21.515625 L 20.425781 -22.078125 L 20.164062 -22.804688 L 19.105469 -23.101562 L 16.003906 -23.132812 L 15.277344 -22.835938 L 14.949219 -22.109375 L 14.980469 -18.875 L 14.914062 -18.214844 L 14.949219 -16.929688 L 14.882812 -16.234375 L 14.980469 -15.542969 L 14.882812 -12.9375 L 15.015625 -12.34375 L 14.949219 -11.617188 L 14.980469 -10.429688 L 14.914062 -9.769531 L 14.949219 -8.085938 L 14.816406 -7.027344 L 14.519531 -6.402344 L 14.222656 -5.941406 L 13.695312 -5.445312 L 12.375 -5.015625 L 11.484375 -4.949219 L 10.394531 -5.015625 L 9.800781 -5.179688 L 9.074219 -5.542969 L 8.578125 -5.972656 L 8.183594 -6.433594 L 7.984375 -7.128906 L 7.921875 -12.9375 L 7.820312 -13.597656 L 7.789062 -15.640625 L 7.855469 -16.234375 L 7.855469 -18.875 L 7.753906 -19.832031 L 7.753906 -20.460938 L 7.921875 -21.449219 L 7.921875 -22.144531 L 7.558594 -22.769531 L 6.765625 -23.066406 L 3.300781 -23.101562 L 2.640625 -22.738281 L 2.34375 -22.078125 L 2.34375 -20.097656 L 2.179688 -19.535156 L 2.308594 -18.148438 L 2.210938 -16.894531 L 2.375 -14.914062 L 2.242188 -14.289062 L 2.34375 -13.5625 L 2.277344 -12.9375 L 2.308594 -12.277344 L 2.242188 -11.648438 L 2.34375 -10.328125 L 2.308594 -7.953125 L 2.410156 -6.996094 L 2.410156 -6.304688 L 2.605469 -5.644531 L 2.707031 -5.015625 L 2.902344 -4.390625 L 3.5625 -3.265625 L 4.453125 -2.179688 L 4.882812 -1.75 L 6.007812 -1.089844 L 6.5 -0.691406 L 7.128906 -0.429688 L 7.886719 -0.199219 L 8.382812 0.0664062 L 9.109375 0.0976562 Z M 9.734375 0.265625 "/></g></g></g><g fill="#000000" fill-opacity="1"><g transform="translate(360.716882, 270.160995)"><g><path d="M 2.441406 -0.957031 L 2.738281 -0.363281 L 3.53125 0 L 7.160156 -0.0664062 L 8.152344 -0.363281 L 8.515625 -0.890625 L 8.578125 -1.519531 L 8.546875 -2.210938 L 8.449219 -2.902344 L 8.546875 -7.359375 L 8.414062 -9.273438 L 8.710938 -9.734375 L 9.207031 -9.601562 L 10.03125 -8.578125 L 11.878906 -6.832031 L 12.308594 -6.269531 L 13.398438 -5.378906 L 14.15625 -5.378906 L 14.71875 -5.773438 L 17.488281 -8.578125 L 17.917969 -9.140625 L 18.382812 -9.601562 L 18.777344 -9.667969 L 19.039062 -9.273438 L 19.140625 -8.613281 L 19.039062 -7.984375 L 19.074219 -7.390625 L 19.039062 -6.730469 L 19.140625 -5.511719 L 19.039062 -0.957031 L 19.371094 -0.265625 L 20.097656 0 L 24.058594 0.03125 L 24.683594 -0.363281 L 25.046875 -1.054688 L 25.144531 -1.714844 L 25.015625 -5.675781 L 25.078125 -6.304688 L 25.015625 -7.589844 L 25.113281 -8.25 L 25.078125 -8.910156 L 25.144531 -9.601562 L 25.078125 -10.261719 L 25.179688 -10.855469 L 25.078125 -20.195312 L 25.144531 -20.890625 L 25.078125 -21.449219 L 25.113281 -22.144531 L 24.75 -22.769531 L 24.089844 -23.164062 L 23.101562 -22.867188 L 22.273438 -22.40625 L 21.515625 -21.484375 L 19.636719 -19.535156 L 19.339844 -19.039062 L 14.453125 -13.859375 L 13.726562 -13.628906 L 13.132812 -13.828125 L 12.703125 -14.257812 L 12.308594 -14.816406 L 11.78125 -15.246094 L 11.386719 -15.773438 L 9.109375 -18.117188 L 8.316406 -19.105469 L 7.753906 -19.601562 L 7.324219 -20.0625 L 6.964844 -20.558594 L 6.5 -20.988281 L 6.136719 -21.449219 L 5.410156 -22.210938 L 4.453125 -22.902344 L 3.496094 -23.164062 L 2.839844 -22.804688 L 2.476562 -22.144531 L 2.410156 -21.449219 L 2.507812 -6.898438 L 2.375 -6.269531 L 2.507812 -1.585938 Z M 2.441406 -0.957031 "/></g></g></g></svg>